<svg version="1.1" xmlns="http://www.w3.org/2000/svg" viewBox="0 0 1183 1073" width="1183" height="1073">
  <!-- svg-source:excalidraw -->
  
  <defs>
    <style class="style-fonts">
      @font-face {
        font-family: "Virgil";
        src: url("https://excalidraw.com/Virgil.woff2");
      }
      @font-face {
        font-family: "Cascadia";
        src: url("https://excalidraw.com/Cascadia.woff2");
      }
    </style>
  </defs>
  <rect x="0" y="0" width="1183" height="1073" fill="#ffffff"></rect><g stroke-linecap="round" transform="translate(540 195) rotate(0 61 66)"><path d="M0 0 C37.21 0, 74.42 0, 122 0 M0 0 C39.97 0, 79.94 0, 122 0 M122 0 C122 50.61, 122 101.21, 122 132 M122 0 C122 26.44, 122 52.88, 122 132 M122 132 C77.27 132, 32.55 132, 0 132 M122 132 C75.67 132, 29.35 132, 0 132 M0 132 C0 87.24, 0 42.48, 0 0 M0 132 C0 97.49, 0 62.98, 0 0" stroke="#000000" stroke-width="1" fill="none"></path></g><g transform="translate(559.8623046875 249.5) rotate(0 41.1376953125 11.5)"><text x="41.1376953125" y="0" font-family="Helvetica, Segoe UI Emoji" font-size="20px" fill="#000000" text-anchor="middle" style="white-space: pre;" direction="ltr" dominant-baseline="text-before-edge">elemento</text></g><g mask="url(#mask-1XPOEhIc2gAxMouecU1Cw)" stroke-linecap="round"><g transform="translate(662 327) rotate(0 45.5 60.5)"><path d="M0 0 C25.76 34.26, 51.53 68.51, 91 121 M0 0 C21.71 28.86, 43.42 57.73, 91 121" stroke="#000000" stroke-width="1" fill="none"></path></g><g transform="translate(662 327) rotate(0 45.5 60.5)"><path d="M65.86 104.64 C72.97 109.27, 80.09 113.9, 91 121 M65.86 104.64 C71.85 108.54, 77.85 112.44, 91 121" stroke="#000000" stroke-width="1" fill="none"></path></g><g transform="translate(662 327) rotate(0 45.5 60.5)"><path d="M82.26 92.3 C84.73 100.43, 87.21 108.55, 91 121 M82.26 92.3 C84.34 99.15, 86.43 105.99, 91 121" stroke="#000000" stroke-width="1" fill="none"></path></g></g><mask id="mask-1XPOEhIc2gAxMouecU1Cw"><rect x="0" y="0" fill="#fff" width="853" height="548"></rect><rect x="693.046875" y="376" fill="#000" width="28.90625" height="23" opacity="1"></rect></mask><g transform="translate(693.046875 376) rotate(0 14.453125 11.5)"><text x="14.453125" y="0" font-family="Helvetica, Segoe UI Emoji" font-size="20px" fill="#000000" text-anchor="middle" style="white-space: pre;" direction="ltr" dominant-baseline="text-before-edge">der</text></g><g mask="url(#mask-zjGXxHzOyk4fCEZW7_898)" stroke-linecap="round"><g transform="translate(539 329) rotate(0 -46.5 59.5)"><path d="M0 0 C-22.04 28.21, -44.09 56.41, -93 119 M0 0 C-25.32 32.4, -50.63 64.79, -93 119" stroke="#000000" stroke-width="1" fill="none"></path></g><g transform="translate(539 329) rotate(0 -46.5 59.5)"><path d="M-83.73 90.47 C-85.92 97.23, -88.12 103.99, -93 119 M-83.73 90.47 C-86.25 98.24, -88.78 106, -93 119" stroke="#000000" stroke-width="1" fill="none"></path></g><g transform="translate(539 329) rotate(0 -46.5 59.5)"><path d="M-67.56 103.11 C-73.59 106.87, -79.62 110.64, -93 119 M-67.56 103.11 C-74.48 107.43, -81.41 111.76, -93 119" stroke="#000000" stroke-width="1" fill="none"></path></g></g><mask id="mask-zjGXxHzOyk4fCEZW7_898"><rect x="0" y="0" fill="#fff" width="732" height="548"></rect><rect x="479.716796875" y="377" fill="#000" width="25.56640625" height="23" opacity="1"></rect></mask><g transform="translate(479.716796875 377) rotate(0 12.783203125 11.5)"><text x="12.783203125" y="0" font-family="Helvetica, Segoe UI Emoji" font-size="20px" fill="#000000" text-anchor="middle" style="white-space: pre;" direction="ltr" dominant-baseline="text-before-edge">izq</text></g><g transform="translate(215 47.400000000000006) rotate(0 35.0341796875 16.099999999999994)"><text x="0" y="0" font-family="Helvetica, Segoe UI Emoji" font-size="28px" fill="#000000" text-anchor="start" style="white-space: pre;" direction="ltr" dominant-baseline="text-before-edge">abb_t</text></g><g stroke-linecap="round" transform="translate(336.5 460.5) rotate(0 61 66)"><path d="M0 0 C25.05 0, 50.11 0, 122 0 M0 0 C38.57 0, 77.14 0, 122 0 M122 0 C122 46.71, 122 93.42, 122 132 M122 0 C122 34.64, 122 69.27, 122 132 M122 132 C92.47 132, 62.94 132, 0 132 M122 132 C93.98 132, 65.97 132, 0 132 M0 132 C0 93.81, 0 55.63, 0 0 M0 132 C0 86.22, 0 40.44, 0 0" stroke="#000000" stroke-width="1" fill="none"></path></g><g transform="translate(356.3623046875 515) rotate(0 41.1376953125 11.5)"><text x="41.1376953125" y="0" font-family="Helvetica, Segoe UI Emoji" font-size="20px" fill="#000000" text-anchor="middle" style="white-space: pre;" direction="ltr" dominant-baseline="text-before-edge">elemento</text></g><g mask="url(#mask-KEDU_JZkm7LQBcJXfDdWk)" stroke-linecap="round"><g transform="translate(458.5 592.5) rotate(0 45.5 60.5)"><path d="M0 0 C24.42 32.47, 48.83 64.93, 91 121 M0 0 C30.85 41.02, 61.69 82.03, 91 121" stroke="#000000" stroke-width="1" fill="none"></path></g><g transform="translate(458.5 592.5) rotate(0 45.5 60.5)"><path d="M65.86 104.64 C72.6 109.03, 79.35 113.42, 91 121 M65.86 104.64 C74.38 110.18, 82.9 115.73, 91 121" stroke="#000000" stroke-width="1" fill="none"></path></g><g transform="translate(458.5 592.5) rotate(0 45.5 60.5)"><path d="M82.26 92.3 C84.6 100, 86.95 107.7, 91 121 M82.26 92.3 C85.22 102.03, 88.18 111.76, 91 121" stroke="#000000" stroke-width="1" fill="none"></path></g></g><mask id="mask-KEDU_JZkm7LQBcJXfDdWk"><rect x="0" y="0" fill="#fff" width="649.5" height="813.5"></rect><rect x="489.546875" y="641.5" fill="#000" width="28.90625" height="23" opacity="1"></rect></mask><g transform="translate(489.546875 641.5) rotate(0 14.453125 11.5)"><text x="14.453125" y="0" font-family="Helvetica, Segoe UI Emoji" font-size="20px" fill="#000000" text-anchor="middle" style="white-space: pre;" direction="ltr" dominant-baseline="text-before-edge">der</text></g><g mask="url(#mask-fVvCWvIsqpcfFjygIcZGn)" stroke-linecap="round"><g transform="translate(335.5 594.5) rotate(0 -46.5 59.5)"><path d="M0 0 C-25.81 33.02, -51.61 66.04, -93 119 M0 0 C-32.44 41.51, -64.88 83.02, -93 119" stroke="#000000" stroke-width="1" fill="none"></path></g><g transform="translate(335.5 594.5) rotate(0 -46.5 59.5)"><path d="M-83.73 90.47 C-86.3 98.39, -88.87 106.3, -93 119 M-83.73 90.47 C-86.96 100.42, -90.2 110.37, -93 119" stroke="#000000" stroke-width="1" fill="none"></path></g><g transform="translate(335.5 594.5) rotate(0 -46.5 59.5)"><path d="M-67.56 103.11 C-74.62 107.52, -81.68 111.93, -93 119 M-67.56 103.11 C-76.43 108.65, -85.31 114.2, -93 119" stroke="#000000" stroke-width="1" fill="none"></path></g></g><mask id="mask-fVvCWvIsqpcfFjygIcZGn"><rect x="0" y="0" fill="#fff" width="528.5" height="813.5"></rect><rect x="276.216796875" y="642.5" fill="#000" width="25.56640625" height="23" opacity="1"></rect></mask><g transform="translate(276.216796875 642.5) rotate(0 12.783203125 11.5)"><text x="12.783203125" y="0" font-family="Helvetica, Segoe UI Emoji" font-size="20px" fill="#000000" text-anchor="middle" style="white-space: pre;" direction="ltr" dominant-baseline="text-before-edge">izq</text></g><g stroke-linecap="round" transform="translate(725.5 464.5) rotate(0 61 66)"><path d="M0 0 C46.02 0, 92.04 0, 122 0 M0 0 C42.99 0, 85.99 0, 122 0 M122 0 C122 39.85, 122 79.69, 122 132 M122 0 C122 41.2, 122 82.4, 122 132 M122 132 C83.84 132, 45.68 132, 0 132 M122 132 C74.79 132, 27.58 132, 0 132 M0 132 C0 96.61, 0 61.22, 0 0 M0 132 C0 100.02, 0 68.05, 0 0" stroke="#000000" stroke-width="1" fill="none"></path></g><g transform="translate(745.3623046875 519) rotate(0 41.1376953125 11.5)"><text x="41.1376953125" y="0" font-family="Helvetica, Segoe UI Emoji" font-size="20px" fill="#000000" text-anchor="middle" style="white-space: pre;" direction="ltr" dominant-baseline="text-before-edge">elemento</text></g><g mask="url(#mask-NsHMcdc0sjgDeJQO3CQCz)" stroke-linecap="round"><g transform="translate(847.5 596.5) rotate(0 45.5 60.5)"><path d="M0 0 C23.52 31.28, 47.04 62.55, 91 121 M0 0 C29.89 39.75, 59.78 79.49, 91 121" stroke="#000000" stroke-width="1" fill="none"></path></g><g transform="translate(847.5 596.5) rotate(0 45.5 60.5)"><path d="M65.86 104.64 C72.35 108.87, 78.85 113.1, 91 121 M65.86 104.64 C74.12 110.01, 82.37 115.39, 91 121" stroke="#000000" stroke-width="1" fill="none"></path></g><g transform="translate(847.5 596.5) rotate(0 45.5 60.5)"><path d="M82.26 92.3 C84.52 99.72, 86.78 107.14, 91 121 M82.26 92.3 C85.13 101.73, 88 111.16, 91 121" stroke="#000000" stroke-width="1" fill="none"></path></g></g><mask id="mask-NsHMcdc0sjgDeJQO3CQCz"><rect x="0" y="0" fill="#fff" width="1038.5" height="817.5"></rect><rect x="878.546875" y="645.5" fill="#000" width="28.90625" height="23" opacity="1"></rect></mask><g transform="translate(878.546875 645.5) rotate(0 14.453125 11.5)"><text x="14.453125" y="0" font-family="Helvetica, Segoe UI Emoji" font-size="20px" fill="#000000" text-anchor="middle" style="white-space: pre;" direction="ltr" dominant-baseline="text-before-edge">der</text></g><g mask="url(#mask-1p4v0Drv0nWvslCpDgXDp)" stroke-linecap="round"><g transform="translate(724.5 598.5) rotate(0 -46.5 59.5)"><path d="M0 0 C-19.89 25.45, -39.78 50.9, -93 119 M0 0 C-27.17 34.76, -54.34 69.53, -93 119" stroke="#000000" stroke-width="1" fill="none"></path></g><g transform="translate(724.5 598.5) rotate(0 -46.5 59.5)"><path d="M-83.73 90.47 C-85.71 96.57, -87.69 102.67, -93 119 M-83.73 90.47 C-86.43 98.8, -89.14 107.14, -93 119" stroke="#000000" stroke-width="1" fill="none"></path></g><g transform="translate(724.5 598.5) rotate(0 -46.5 59.5)"><path d="M-67.56 103.11 C-73 106.51, -78.44 109.9, -93 119 M-67.56 103.11 C-74.99 107.75, -82.42 112.39, -93 119" stroke="#000000" stroke-width="1" fill="none"></path></g></g><mask id="mask-1p4v0Drv0nWvslCpDgXDp"><rect x="0" y="0" fill="#fff" width="917.5" height="817.5"></rect><rect x="665.216796875" y="646.5" fill="#000" width="25.56640625" height="23" opacity="1"></rect></mask><g transform="translate(665.216796875 646.5) rotate(0 12.783203125 11.5)"><text x="12.783203125" y="0" font-family="Helvetica, Segoe UI Emoji" font-size="20px" fill="#000000" text-anchor="middle" style="white-space: pre;" direction="ltr" dominant-baseline="text-before-edge">izq</text></g><g stroke-linecap="round" transform="translate(173.5 728.5) rotate(0 61 66)"><path d="M0 0 C40.98 0, 81.95 0, 122 0 M0 0 C41.13 0, 82.26 0, 122 0 M122 0 C122 36.87, 122 73.73, 122 132 M122 0 C122 50.07, 122 100.15, 122 132 M122 132 C82.66 132, 43.32 132, 0 132 M122 132 C78.1 132, 34.2 132, 0 132 M0 132 C0 103.93, 0 75.85, 0 0 M0 132 C0 88.44, 0 44.89, 0 0" stroke="#000000" stroke-width="1" fill="none"></path></g><g transform="translate(193.3623046875 783) rotate(0 41.1376953125 11.5)"><text x="41.1376953125" y="0" font-family="Helvetica, Segoe UI Emoji" font-size="20px" fill="#000000" text-anchor="middle" style="white-space: pre;" direction="ltr" dominant-baseline="text-before-edge">elemento</text></g><g mask="url(#mask-nCUu-cdApOLN8IOGu-3B2)" stroke-linecap="round"><g transform="translate(295.5 860.5) rotate(0 45.5 60.5)"><path d="M0 0 C30.95 41.15, 61.89 82.3, 91 121 M0 0 C25.89 34.42, 51.78 68.85, 91 121" stroke="#000000" stroke-width="1" fill="none"></path></g><g transform="translate(295.5 860.5) rotate(0 45.5 60.5)"><path d="M65.86 104.64 C74.41 110.2, 82.96 115.77, 91 121 M65.86 104.64 C73.01 109.29, 80.16 113.95, 91 121" stroke="#000000" stroke-width="1" fill="none"></path></g><g transform="translate(295.5 860.5) rotate(0 45.5 60.5)"><path d="M82.26 92.3 C85.23 102.06, 88.2 111.82, 91 121 M82.26 92.3 C84.74 100.47, 87.23 108.63, 91 121" stroke="#000000" stroke-width="1" fill="none"></path></g></g><mask id="mask-nCUu-cdApOLN8IOGu-3B2"><rect x="0" y="0" fill="#fff" width="486.5" height="1081.5"></rect><rect x="326.546875" y="909.5" fill="#000" width="28.90625" height="23" opacity="1"></rect></mask><g transform="translate(326.546875 909.5) rotate(0 14.453125 11.5)"><text x="14.453125" y="0" font-family="Helvetica, Segoe UI Emoji" font-size="20px" fill="#000000" text-anchor="middle" style="white-space: pre;" direction="ltr" dominant-baseline="text-before-edge">der</text></g><g mask="url(#mask-z5NCEZY-5U3QhBtsG-TGc)" stroke-linecap="round"><g transform="translate(172.5 862.5) rotate(0 -46.5 59.5)"><path d="M0 0 C-20.83 26.66, -41.67 53.32, -93 119 M0 0 C-21.91 28.04, -43.82 56.08, -93 119" stroke="#000000" stroke-width="1" fill="none"></path></g><g transform="translate(172.5 862.5) rotate(0 -46.5 59.5)"><path d="M-83.73 90.47 C-85.8 96.86, -87.88 103.25, -93 119 M-83.73 90.47 C-85.91 97.19, -88.1 103.91, -93 119" stroke="#000000" stroke-width="1" fill="none"></path></g><g transform="translate(172.5 862.5) rotate(0 -46.5 59.5)"><path d="M-67.56 103.11 C-73.26 106.67, -78.96 110.23, -93 119 M-67.56 103.11 C-73.55 106.85, -79.55 110.6, -93 119" stroke="#000000" stroke-width="1" fill="none"></path></g></g><mask id="mask-z5NCEZY-5U3QhBtsG-TGc"><rect x="0" y="0" fill="#fff" width="365.5" height="1081.5"></rect><rect x="113.216796875" y="910.5" fill="#000" width="25.56640625" height="23" opacity="1"></rect></mask><g transform="translate(113.216796875 910.5) rotate(0 12.783203125 11.5)"><text x="12.783203125" y="0" font-family="Helvetica, Segoe UI Emoji" font-size="20px" fill="#000000" text-anchor="middle" style="white-space: pre;" direction="ltr" dominant-baseline="text-before-edge">izq</text></g><g stroke-linecap="round" transform="translate(892.5 738.5) rotate(0 61 66)"><path d="M0 0 C28.51 0, 57.02 0, 122 0 M0 0 C28.22 0, 56.44 0, 122 0 M122 0 C122 47.35, 122 94.7, 122 132 M122 0 C122 36.75, 122 73.5, 122 132 M122 132 C96.86 132, 71.72 132, 0 132 M122 132 C96.45 132, 70.91 132, 0 132 M0 132 C0 100.52, 0 69.05, 0 0 M0 132 C0 93.58, 0 55.17, 0 0" stroke="#000000" stroke-width="1" fill="none"></path></g><g transform="translate(912.3623046875 793) rotate(0 41.1376953125 11.5)"><text x="41.1376953125" y="0" font-family="Helvetica, Segoe UI Emoji" font-size="20px" fill="#000000" text-anchor="middle" style="white-space: pre;" direction="ltr" dominant-baseline="text-before-edge">elemento</text></g><g mask="url(#mask-nOk7sbEPwixC5kcR6DsSc)" stroke-linecap="round"><g transform="translate(1014.5 870.5) rotate(0 45.5 60.5)"><path d="M0 0 C18.91 25.15, 37.83 50.3, 91 121 M0 0 C35.51 47.21, 71.01 94.42, 91 121" stroke="#000000" stroke-width="1" fill="none"></path></g><g transform="translate(1014.5 870.5) rotate(0 45.5 60.5)"><path d="M65.86 104.64 C71.08 108.04, 76.31 111.44, 91 121 M65.86 104.64 C75.67 111.02, 85.48 117.41, 91 121" stroke="#000000" stroke-width="1" fill="none"></path></g><g transform="translate(1014.5 870.5) rotate(0 45.5 60.5)"><path d="M82.26 92.3 C84.07 98.27, 85.89 104.23, 91 121 M82.26 92.3 C85.67 103.5, 89.08 114.7, 91 121" stroke="#000000" stroke-width="1" fill="none"></path></g></g><mask id="mask-nOk7sbEPwixC5kcR6DsSc"><rect x="0" y="0" fill="#fff" width="1205.5" height="1091.5"></rect><rect x="1045.546875" y="919.5" fill="#000" width="28.90625" height="23" opacity="1"></rect></mask><g transform="translate(1045.546875 919.5) rotate(0 14.453125 11.5)"><text x="14.453125" y="0" font-family="Helvetica, Segoe UI Emoji" font-size="20px" fill="#000000" text-anchor="middle" style="white-space: pre;" direction="ltr" dominant-baseline="text-before-edge">der</text></g><g mask="url(#mask-Xarh_EN1mN-80P28ftzkh)" stroke-linecap="round"><g transform="translate(891.5 872.5) rotate(0 -46.5 59.5)"><path d="M0 0 C-24.33 31.13, -48.66 62.26, -93 119 M0 0 C-20.09 25.71, -40.18 51.41, -93 119" stroke="#000000" stroke-width="1" fill="none"></path></g><g transform="translate(891.5 872.5) rotate(0 -46.5 59.5)"><path d="M-83.73 90.47 C-86.15 97.93, -88.58 105.4, -93 119 M-83.73 90.47 C-85.73 96.63, -87.73 102.8, -93 119" stroke="#000000" stroke-width="1" fill="none"></path></g><g transform="translate(891.5 872.5) rotate(0 -46.5 59.5)"><path d="M-67.56 103.11 C-74.21 107.26, -80.87 111.42, -93 119 M-67.56 103.11 C-73.05 106.54, -78.55 109.97, -93 119" stroke="#000000" stroke-width="1" fill="none"></path></g></g><mask id="mask-Xarh_EN1mN-80P28ftzkh"><rect x="0" y="0" fill="#fff" width="1084.5" height="1091.5"></rect><rect x="832.216796875" y="920.5" fill="#000" width="25.56640625" height="23" opacity="1"></rect></mask><g transform="translate(832.216796875 920.5) rotate(0 12.783203125 11.5)"><text x="12.783203125" y="0" font-family="Helvetica, Segoe UI Emoji" font-size="20px" fill="#000000" text-anchor="middle" style="white-space: pre;" direction="ltr" dominant-baseline="text-before-edge">izq</text></g><g transform="translate(528 725) rotate(0 25.56640625 11.5)"><text x="0" y="0" font-family="Helvetica, Segoe UI Emoji" font-size="20px" fill="#000000" text-anchor="start" style="white-space: pre;" direction="ltr" dominant-baseline="text-before-edge">NULL</text></g><g transform="translate(604.43359375 726.5) rotate(0 25.56640625 11.5)"><text x="0" y="0" font-family="Helvetica, Segoe UI Emoji" font-size="20px" fill="#000000" text-anchor="start" style="white-space: pre;" direction="ltr" dominant-baseline="text-before-edge">NULL</text></g><g transform="translate(755.43359375 995.5) rotate(0 25.56640625 11.5)"><text x="0" y="0" font-family="Helvetica, Segoe UI Emoji" font-size="20px" fill="#000000" text-anchor="start" style="white-space: pre;" direction="ltr" dominant-baseline="text-before-edge">NULL</text></g><g transform="translate(1102.43359375 1003.5) rotate(0 25.56640625 11.5)"><text x="0" y="0" font-family="Helvetica, Segoe UI Emoji" font-size="20px" fill="#000000" text-anchor="start" style="white-space: pre;" direction="ltr" dominant-baseline="text-before-edge">NULL</text></g><g transform="translate(387.43359375 991.5) rotate(0 25.56640625 11.5)"><text x="0" y="0" font-family="Helvetica, Segoe UI Emoji" font-size="20px" fill="#000000" text-anchor="start" style="white-space: pre;" direction="ltr" dominant-baseline="text-before-edge">NULL</text></g><g transform="translate(31.43359375 990.5) rotate(0 25.56640625 11.5)"><text x="0" y="0" font-family="Helvetica, Segoe UI Emoji" font-size="20px" fill="#000000" text-anchor="start" style="white-space: pre;" direction="ltr" dominant-baseline="text-before-edge">NULL</text></g><g transform="translate(214 96) rotate(0 75.615234375 11.5)"><text x="0" y="0" font-family="Helvetica, Segoe UI Emoji" font-size="20px" fill="#000000" text-anchor="start" style="white-space: pre;" direction="ltr" dominant-baseline="text-before-edge">nodo_abb_t *raiz</text></g><g transform="translate(386 104) rotate(0 107 37)" stroke="none"><path fill="#000000" d="M -0.84,-2.53 Q -0.84,-2.53 0.00,-2.85 0.86,-3.17 2.38,-3.48 3.90,-3.78 5.04,-3.88 6.18,-3.97 7.50,-4.02 8.82,-4.07 10.00,-4.11 11.18,-4.15 12.91,-4.16 14.64,-4.17 15.89,-4.14 17.14,-4.10 18.25,-4.09 19.36,-4.08 20.69,-4.04 22.02,-4.00 23.46,-3.96 24.89,-3.91 26.86,-3.50 28.83,-3.09 30.06,-2.97 31.29,-2.86 32.92,-2.74 34.54,-2.62 37.25,-2.44 39.96,-2.26 42.27,-2.13 44.58,-2.00 47.00,-1.91 49.42,-1.81 51.31,-1.80 53.20,-1.79 54.87,-1.82 56.53,-1.85 58.68,-1.78 60.82,-1.71 62.60,-1.73 64.37,-1.76 66.56,-1.70 68.76,-1.63 71.12,-1.59 73.49,-1.55 74.79,-1.65 76.08,-1.75 77.78,-1.78 79.48,-1.81 81.64,-1.75 83.80,-1.68 85.98,-1.34 88.16,-1.01 89.58,-0.97 90.99,-0.94 92.71,-0.91 94.43,-0.88 95.75,-0.93 97.07,-0.98 98.48,-1.02 99.90,-1.06 101.65,-1.05 103.40,-1.03 105.59,-0.94 107.77,-0.84 109.56,-0.84 111.35,-0.85 112.97,-0.88 114.60,-0.92 116.15,-0.95 117.71,-0.99 119.18,-0.74 120.65,-0.49 121.89,-0.43 123.14,-0.37 124.90,-0.42 126.66,-0.47 128.18,-0.16 129.69,0.14 131.50,0.22 133.32,0.31 135.01,0.27 136.70,0.23 138.04,0.55 139.37,0.88 141.16,0.98 142.95,1.08 144.83,1.43 146.71,1.77 148.62,2.22 150.54,2.68 151.73,2.77 152.92,2.86 154.16,2.93 155.41,3.00 156.54,3.44 157.67,3.87 159.56,3.88 161.45,3.88 162.72,4.26 163.98,4.65 165.93,5.21 167.88,5.77 169.47,6.76 171.07,7.74 172.38,8.16 173.68,8.58 175.35,9.12 177.02,9.66 178.20,10.69 179.38,11.72 180.62,12.39 181.87,13.06 183.25,13.77 184.64,14.48 185.48,15.41 186.32,16.34 188.17,18.15 190.02,19.96 190.91,20.95 191.79,21.93 192.33,22.93 192.86,23.94 193.98,26.01 195.10,28.08 195.60,29.18 196.11,30.29 196.68,31.81 197.26,33.33 197.37,34.66 197.48,36.00 197.87,37.19 198.25,38.38 198.37,39.72 198.48,41.07 198.49,42.56 198.50,44.05 198.87,45.72 199.24,47.40 199.34,49.05 199.44,50.70 199.45,52.22 199.45,53.73 199.83,55.08 200.21,56.43 200.31,57.67 200.40,58.90 201.08,60.32 201.76,61.74 202.29,62.82 202.81,63.90 203.64,65.39 204.47,66.88 204.89,68.64 205.31,70.39 205.36,70.89 205.41,71.39 205.47,71.82 205.52,72.25 205.47,72.68 205.42,73.11 205.26,73.52 205.11,73.92 204.87,74.28 204.62,74.64 204.30,74.93 203.97,75.22 203.59,75.42 203.20,75.62 202.78,75.73 202.36,75.83 201.93,75.83 201.49,75.84 201.07,75.73 200.65,75.63 200.26,75.43 199.88,75.23 199.55,74.94 199.23,74.65 198.98,74.30 198.73,73.94 198.58,73.53 198.42,73.13 199.39,74.35 200.36,75.56 198.95,74.70 197.54,73.84 196.47,72.65 195.41,71.46 193.81,70.03 192.22,68.60 190.43,67.29 188.64,65.98 187.27,65.16 185.89,64.34 184.87,63.67 183.85,63.01 182.48,62.22 181.10,61.43 180.88,61.20 180.65,60.96 180.49,60.67 180.33,60.39 180.24,60.07 180.15,59.76 180.14,59.43 180.13,59.10 180.20,58.78 180.27,58.46 180.41,58.17 180.56,57.87 180.76,57.62 180.97,57.37 181.24,57.17 181.50,56.98 181.80,56.85 182.11,56.73 182.43,56.68 182.75,56.63 183.08,56.66 183.41,56.69 183.72,56.79 184.03,56.90 184.30,57.08 184.58,57.25 185.93,58.71 187.29,60.17 188.24,61.50 189.19,62.83 190.32,63.42 191.46,64.01 193.00,65.42 194.53,66.83 195.99,67.82 197.45,68.81 198.37,69.63 199.29,70.46 200.50,70.50 201.72,70.54 202.85,71.05 203.98,71.57 205.15,71.53 206.33,71.49 207.29,70.21 208.25,68.93 208.35,67.82 208.44,66.71 208.97,64.91 209.50,63.11 209.47,61.89 209.45,60.67 209.45,59.20 209.44,57.73 209.43,56.23 209.42,54.73 209.42,53.23 209.41,51.73 209.99,49.81 210.57,47.89 210.84,47.37 211.10,46.85 211.52,46.45 211.94,46.04 212.47,45.79 212.99,45.54 213.57,45.47 214.15,45.40 214.72,45.52 215.29,45.64 215.79,45.93 216.29,46.23 216.67,46.66 217.05,47.10 217.28,47.64 217.50,48.18 217.54,48.76 217.58,49.34 217.43,49.90 217.28,50.47 216.96,50.95 216.64,51.44 216.18,51.80 215.72,52.15 215.17,52.35 214.62,52.54 214.04,52.54 213.46,52.55 212.90,52.37 212.35,52.19 211.88,51.85 211.41,51.50 211.08,51.02 210.75,50.54 210.59,49.99 210.42,49.43 210.45,48.85 210.47,48.26 210.68,47.72 210.89,47.18 211.26,46.73 211.63,46.28 212.13,45.98 212.62,45.67 213.19,45.54 213.76,45.41 214.34,45.46 214.92,45.52 215.45,45.76 215.98,45.99 216.41,46.39 216.83,46.78 217.11,47.29 217.39,47.81 217.49,48.38 217.59,48.95 217.50,49.53 217.42,50.10 217.42,50.10 217.42,50.10 217.00,50.92 216.58,51.73 216.57,53.23 216.57,54.73 216.56,56.24 216.55,57.74 216.53,59.27 216.51,60.80 216.46,61.96 216.41,63.11 215.90,64.64 215.39,66.16 215.32,67.51 215.24,68.86 215.02,70.16 214.81,71.45 214.50,72.63 214.19,73.80 213.19,75.28 212.20,76.76 211.30,77.35 210.40,77.94 208.29,78.20 206.18,78.47 205.02,78.41 203.86,78.36 202.26,77.81 200.67,77.27 199.06,76.91 197.44,76.55 196.06,75.54 194.67,74.54 193.34,73.65 192.01,72.76 191.03,72.16 190.05,71.56 189.08,70.61 188.11,69.65 187.14,68.62 186.17,67.59 185.43,66.80 184.69,66.01 183.83,64.52 182.98,63.03 182.04,62.23 181.10,61.43 180.88,61.20 180.65,60.96 180.49,60.67 180.33,60.39 180.24,60.07 180.15,59.76 180.14,59.43 180.13,59.10 180.20,58.78 180.27,58.46 180.41,58.17 180.56,57.87 180.76,57.62 180.97,57.37 181.24,57.17 181.50,56.98 181.80,56.85 182.11,56.73 182.43,56.68 182.75,56.63 183.08,56.66 183.41,56.69 183.72,56.79 184.03,56.90 184.30,57.08 184.58,57.25 185.11,57.51 185.64,57.77 186.98,58.90 188.32,60.03 189.81,60.81 191.29,61.60 193.52,62.72 195.75,63.84 198.20,65.41 200.65,66.99 201.53,67.82 202.41,68.65 203.91,70.02 205.41,71.39 205.47,71.82 205.52,72.25 205.47,72.68 205.42,73.11 205.27,73.52 205.11,73.92 204.87,74.28 204.62,74.64 204.30,74.93 203.97,75.22 203.59,75.42 203.20,75.62 202.78,75.73 202.36,75.83 201.93,75.83 201.49,75.84 201.07,75.73 200.65,75.63 200.26,75.43 199.88,75.23 199.55,74.94 199.23,74.65 198.98,74.30 198.73,73.94 198.58,73.53 198.42,73.13 198.43,72.59 198.45,72.05 198.40,70.20 198.35,68.36 197.84,67.36 197.34,66.35 196.45,65.27 195.56,64.19 195.04,63.09 194.52,62.00 194.00,59.86 193.47,57.72 193.00,55.74 192.53,53.76 192.51,52.33 192.48,50.89 192.38,49.43 192.28,47.96 191.88,46.03 191.48,44.09 191.46,42.73 191.44,41.38 191.35,40.20 191.26,39.03 191.22,37.01 191.17,34.98 190.67,34.04 190.17,33.10 189.38,31.34 188.60,29.57 187.76,28.57 186.93,27.56 186.30,26.49 185.68,25.41 184.29,24.05 182.90,22.69 181.98,21.45 181.06,20.21 179.39,19.01 177.72,17.81 176.42,17.35 175.13,16.89 173.72,15.94 172.31,14.99 171.23,14.49 170.14,13.99 168.63,13.39 167.12,12.80 165.29,11.85 163.45,10.90 162.33,10.47 161.20,10.04 159.27,9.95 157.33,9.85 156.13,9.39 154.94,8.92 153.71,8.93 152.49,8.95 151.42,8.85 150.35,8.75 148.78,8.25 147.20,7.75 145.56,7.31 143.91,6.86 142.38,6.72 140.84,6.58 138.71,6.16 136.58,5.73 134.83,5.63 133.09,5.53 131.74,5.44 130.39,5.36 128.46,4.88 126.53,4.40 124.64,4.20 122.75,4.00 120.22,3.50 117.69,2.99 116.14,2.95 114.59,2.92 112.97,2.88 111.35,2.85 109.56,2.84 107.77,2.83 105.58,2.93 103.39,3.02 101.63,3.03 99.87,3.04 98.44,2.98 97.00,2.92 95.67,2.82 94.33,2.72 92.51,2.65 90.70,2.57 89.21,2.37 87.72,2.16 85.76,1.92 83.80,1.68 81.64,1.75 79.48,1.81 77.78,1.78 76.08,1.75 74.79,1.65 73.49,1.55 71.12,1.59 68.76,1.63 66.56,1.69 64.37,1.76 62.60,1.73 60.82,1.71 58.68,1.78 56.53,1.85 54.86,1.82 53.20,1.78 51.31,1.79 49.41,1.80 46.99,1.89 44.57,1.97 42.25,2.08 39.93,2.20 37.16,2.33 34.39,2.47 32.59,2.48 30.79,2.49 29.38,2.37 27.96,2.24 26.42,2.08 24.88,1.91 23.45,1.96 22.02,2.00 20.69,2.04 19.36,2.08 18.25,2.09 17.14,2.10 15.89,2.14 14.64,2.17 12.91,2.16 11.18,2.15 10.01,2.11 8.83,2.07 7.09,2.02 5.34,1.96 3.96,1.99 2.58,2.02 1.71,2.28 0.84,2.53 0.52,2.60 0.21,2.66 -0.10,2.65 -0.43,2.63 -0.73,2.54 -1.04,2.45 -1.32,2.29 -1.60,2.13 -1.83,1.91 -2.07,1.68 -2.24,1.41 -2.41,1.14 -2.51,0.83 -2.61,0.53 -2.64,0.21 -2.67,-0.10 -2.61,-0.42 -2.56,-0.74 -2.44,-1.04 -2.31,-1.33 -2.12,-1.59 -1.92,-1.85 -1.67,-2.05 -1.42,-2.26 -1.13,-2.39 -0.84,-2.53 -0.84,-2.53 L -0.84,-2.53 Z"></path></g><g transform="translate(215 137) rotate(0 131.7431640625 11.5)"><text x="0" y="0" font-family="Helvetica, Segoe UI Emoji" font-size="20px" fill="#000000" text-anchor="start" style="white-space: pre;" direction="ltr" dominant-baseline="text-before-edge">abb_comparador comparador</text></g><g transform="translate(215 180) rotate(0 64.4775390625 11.5)"><text x="0" y="0" font-family="Helvetica, Segoe UI Emoji" font-size="20px" fill="#000000" text-anchor="start" style="white-space: pre;" direction="ltr" dominant-baseline="text-before-edge">size_t tamanio</text></g><g stroke-linecap="round" transform="translate(10 10) rotate(0 581.5 526.5)"><path d="M0 0 C429.86 0, 859.72 0, 1163 0 M0 0 C395.05 0, 790.09 0, 1163 0 M1163 0 C1163 382.18, 1163 764.37, 1163 1053 M1163 0 C1163 247.53, 1163 495.07, 1163 1053 M1163 1053 C921.99 1053, 680.99 1053, 0 1053 M1163 1053 C925.4 1053, 687.8 1053, 0 1053 M0 1053 C0 770.13, 0 487.26, 0 0 M0 1053 C0 758.78, 0 464.56, 0 0" stroke="#000000" stroke-width="1" fill="none"></path></g></svg>