<svg version="1.1" xmlns="http://www.w3.org/2000/svg" viewBox="0 0 2046.9384765625 734.75" width="2046.9384765625" height="734.75">
  <!-- svg-source:excalidraw -->
  
  <defs>
    <style class="style-fonts">
      @font-face {
        font-family: "Virgil";
        src: url("https://excalidraw.com/Virgil.woff2");
      }
      @font-face {
        font-family: "Cascadia";
        src: url("https://excalidraw.com/Cascadia.woff2");
      }
    </style>
  </defs>
  <rect x="0" y="0" width="2046.9384765625" height="734.75" fill="#ffffff"></rect><g stroke-linecap="round" transform="translate(943.25 10) rotate(0 61 66)"><path d="M0 0 C48.27 0, 96.53 0, 122 0 M0 0 C41.84 0, 83.69 0, 122 0 M122 0 C122 34.47, 122 68.95, 122 132 M122 0 C122 45.11, 122 90.22, 122 132 M122 132 C93.06 132, 64.12 132, 0 132 M122 132 C73.86 132, 25.72 132, 0 132 M0 132 C0 94.8, 0 57.6, 0 0 M0 132 C0 96.31, 0 60.62, 0 0" stroke="#000000" stroke-width="1" fill="none"></path></g><g transform="translate(988.13671875 64.5) rotate(0 16.11328125 11.5)"><text x="16.11328125" y="0" font-family="Helvetica, Segoe UI Emoji" font-size="20px" fill="#000000" text-anchor="middle" style="white-space: pre;" direction="ltr" dominant-baseline="text-before-edge">raiz</text></g><g stroke-linecap="round"><g transform="translate(1065.25 142) rotate(0 45.5 60.5)"><path d="M0 0 C26.77 35.59, 53.53 71.18, 91 121 M0 0 C24.29 32.3, 48.58 64.6, 91 121" stroke="#000000" stroke-width="1" fill="none"></path></g><g transform="translate(1065.25 142) rotate(0 45.5 60.5)"><path d="M65.86 104.64 C73.25 109.45, 80.65 114.26, 91 121 M65.86 104.64 C72.57 109, 79.28 113.37, 91 121" stroke="#000000" stroke-width="1" fill="none"></path></g><g transform="translate(1065.25 142) rotate(0 45.5 60.5)"><path d="M82.26 92.3 C84.83 100.74, 87.4 109.18, 91 121 M82.26 92.3 C84.59 99.96, 86.92 107.62, 91 121" stroke="#000000" stroke-width="1" fill="none"></path></g></g><mask></mask><g stroke-linecap="round"><g transform="translate(942.25 144) rotate(0 -46.5 59.5)"><path d="M0 0 C-21.72 27.79, -43.43 55.58, -93 119 M0 0 C-24.59 31.47, -49.19 62.94, -93 119" stroke="#000000" stroke-width="1" fill="none"></path></g><g transform="translate(942.25 144) rotate(0 -46.5 59.5)"><path d="M-83.73 90.47 C-85.89 97.13, -88.06 103.79, -93 119 M-83.73 90.47 C-86.18 98.01, -88.63 105.56, -93 119" stroke="#000000" stroke-width="1" fill="none"></path></g><g transform="translate(942.25 144) rotate(0 -46.5 59.5)"><path d="M-67.56 103.11 C-73.5 106.82, -79.44 110.53, -93 119 M-67.56 103.11 C-74.29 107.31, -81.01 111.51, -93 119" stroke="#000000" stroke-width="1" fill="none"></path></g></g><mask></mask><g stroke-linecap="round" transform="translate(739.75 275.5) rotate(0 61 66)"><path d="M0 0 C31.51 0, 63.03 0, 122 0 M0 0 C25.45 0, 50.91 0, 122 0 M122 0 C122 51.76, 122 103.52, 122 132 M122 0 C122 28.49, 122 56.99, 122 132 M122 132 C87.23 132, 52.46 132, 0 132 M122 132 C90.5 132, 59.01 132, 0 132 M0 132 C0 81.7, 0 31.39, 0 0 M0 132 C0 92.04, 0 52.09, 0 0" stroke="#000000" stroke-width="1" fill="none"></path></g><g stroke-linecap="round"><g transform="translate(849.9103154192684 408.5) rotate(0 36.788707180260644 64)"><path d="M0 0 C17.63 30.66, 35.25 61.32, 73.58 128 M0 0 C16.26 28.29, 32.52 56.57, 73.58 128" stroke="#000000" stroke-width="1" fill="none"></path></g><g transform="translate(849.9103154192684 408.5) rotate(0 36.788707180260644 64)"><path d="M50.63 108.67 C56.13 113.3, 61.63 117.93, 73.58 128 M50.63 108.67 C55.7 112.94, 60.77 117.21, 73.58 128" stroke="#000000" stroke-width="1" fill="none"></path></g><g transform="translate(849.9103154192684 408.5) rotate(0 36.788707180260644 64)"><path d="M68.42 98.45 C69.66 105.53, 70.89 112.61, 73.58 128 M68.42 98.45 C69.56 104.98, 70.7 111.51, 73.58 128" stroke="#000000" stroke-width="1" fill="none"></path></g></g><mask></mask><g stroke-linecap="round"><g transform="translate(738.75 409.5) rotate(0 -46.5 59.5)"><path d="M0 0 C-34.87 44.61, -69.73 89.22, -93 119 M0 0 C-34.54 44.2, -69.09 88.4, -93 119" stroke="#000000" stroke-width="1" fill="none"></path></g><g transform="translate(738.75 409.5) rotate(0 -46.5 59.5)"><path d="M-83.73 90.47 C-87.2 101.17, -90.68 111.86, -93 119 M-83.73 90.47 C-87.17 101.07, -90.62 111.66, -93 119" stroke="#000000" stroke-width="1" fill="none"></path></g><g transform="translate(738.75 409.5) rotate(0 -46.5 59.5)"><path d="M-67.56 103.11 C-77.09 109.06, -86.63 115.02, -93 119 M-67.56 103.11 C-77.01 109.01, -86.46 114.91, -93 119" stroke="#000000" stroke-width="1" fill="none"></path></g></g><mask></mask><g stroke-linecap="round" transform="translate(1128.75 279.5) rotate(0 61 66)"><path d="M0 0 C35.2 0, 70.4 0, 122 0 M0 0 C46.16 0, 92.33 0, 122 0 M122 0 C122 28.12, 122 56.24, 122 132 M122 0 C122 48.82, 122 97.65, 122 132 M122 132 C83.65 132, 45.31 132, 0 132 M122 132 C94.29 132, 66.59 132, 0 132 M0 132 C0 81.16, 0 30.32, 0 0 M0 132 C0 98.62, 0 65.23, 0 0" stroke="#000000" stroke-width="1" fill="none"></path></g><g stroke-linecap="round"><g transform="translate(1250.75 411.5) rotate(0 45.5 60.5)"><path d="M0 0 C30.14 40.08, 60.28 80.15, 91 121 M0 0 C28.09 37.35, 56.17 74.69, 91 121" stroke="#000000" stroke-width="1" fill="none"></path></g><g transform="translate(1250.75 411.5) rotate(0 45.5 60.5)"><path d="M65.86 104.64 C74.18 110.06, 82.51 115.48, 91 121 M65.86 104.64 C73.62 109.69, 81.38 114.74, 91 121" stroke="#000000" stroke-width="1" fill="none"></path></g><g transform="translate(1250.75 411.5) rotate(0 45.5 60.5)"><path d="M82.26 92.3 C85.15 101.81, 88.05 111.31, 91 121 M82.26 92.3 C84.95 101.16, 87.65 110.02, 91 121" stroke="#000000" stroke-width="1" fill="none"></path></g></g><mask></mask><g stroke-linecap="round"><g transform="translate(1127.75 405.46457126201494) rotate(0 -21.000000000000057 63.33709978192161)"><path d="M0 0 C-11.77 35.5, -23.54 71, -42 126.67 M0 0 C-11.65 35.15, -23.31 70.3, -42 126.67" stroke="#000000" stroke-width="1" fill="none"></path></g><g transform="translate(1127.75 405.46457126201494) rotate(0 -21.000000000000057 63.33709978192161)"><path d="M-42.87 96.69 C-42.62 105.09, -42.38 113.5, -42 126.67 M-42.87 96.69 C-42.63 105.01, -42.39 113.33, -42 126.67" stroke="#000000" stroke-width="1" fill="none"></path></g><g transform="translate(1127.75 405.46457126201494) rotate(0 -21.000000000000057 63.33709978192161)"><path d="M-23.39 103.15 C-28.6 109.74, -33.82 116.33, -42 126.67 M-23.39 103.15 C-28.55 109.67, -33.72 116.2, -42 126.67" stroke="#000000" stroke-width="1" fill="none"></path></g></g><mask></mask><g stroke-linecap="round" transform="translate(549 540.75) rotate(0 61 66)"><path d="M0 0 C25.21 0, 50.42 0, 122 0 M0 0 C33.72 0, 67.43 0, 122 0 M122 0 C122 33.74, 122 67.48, 122 132 M122 0 C122 50.85, 122 101.69, 122 132 M122 132 C85.44 132, 48.89 132, 0 132 M122 132 C84.77 132, 47.53 132, 0 132 M0 132 C0 101.31, 0 70.62, 0 0 M0 132 C0 104.24, 0 76.48, 0 0" stroke="#000000" stroke-width="1" fill="none"></path></g><g stroke-linecap="round" transform="translate(850 546.75) rotate(0 61 66)"><path d="M0 0 C31.07 0, 62.13 0, 122 0 M0 0 C46.11 0, 92.22 0, 122 0 M122 0 C122 51.54, 122 103.07, 122 132 M122 0 C122 35.82, 122 71.65, 122 132 M122 132 C87.34 132, 52.67 132, 0 132 M122 132 C91.52 132, 61.04 132, 0 132 M0 132 C0 99.47, 0 66.93, 0 0 M0 132 C0 84.39, 0 36.79, 0 0" stroke="#000000" stroke-width="1" fill="none"></path></g><g stroke-linecap="round" transform="translate(1027 540.75) rotate(0 61 66)"><path d="M0 0 C32.91 0, 65.82 0, 122 0 M0 0 C42.98 0, 85.96 0, 122 0 M122 0 C122 32.62, 122 65.24, 122 132 M122 0 C122 37.47, 122 74.95, 122 132 M122 132 C90.84 132, 59.67 132, 0 132 M122 132 C90.46 132, 58.92 132, 0 132 M0 132 C0 84.02, 0 36.04, 0 0 M0 132 C0 92.4, 0 52.79, 0 0" stroke="#000000" stroke-width="1" fill="none"></path></g><g stroke-linecap="round" transform="translate(1296 540.75) rotate(0 61 66)"><path d="M0 0 C30.19 0, 60.38 0, 122 0 M0 0 C30.78 0, 61.55 0, 122 0 M122 0 C122 26.56, 122 53.12, 122 132 M122 0 C122 27.73, 122 55.47, 122 132 M122 132 C78.44 132, 34.88 132, 0 132 M122 132 C87.56 132, 53.13 132, 0 132 M0 132 C0 94.59, 0 57.18, 0 0 M0 132 C0 95.81, 0 59.62, 0 0" stroke="#000000" stroke-width="1" fill="none"></path></g><g stroke-linecap="round" transform="translate(1591.25 286.125) rotate(0 61 66)"><path d="M0 0 C42.98 0, 85.95 0, 122 0 M0 0 C28.36 0, 56.73 0, 122 0 M122 0 C122 39.1, 122 78.2, 122 132 M122 0 C122 49.47, 122 98.94, 122 132 M122 132 C74.67 132, 27.34 132, 0 132 M122 132 C76.62 132, 31.24 132, 0 132 M0 132 C0 102.01, 0 72.02, 0 0 M0 132 C0 82.13, 0 32.25, 0 0" stroke="#000000" stroke-width="1" fill="none"></path></g><g stroke-linecap="round"><g transform="translate(1713.25 418.125) rotate(0 45.5 60.5)"><path d="M0 0 C24.59 32.7, 49.19 65.41, 91 121 M0 0 C20.79 27.64, 41.57 55.28, 91 121" stroke="#000000" stroke-width="1" fill="none"></path></g><g transform="translate(1713.25 418.125) rotate(0 45.5 60.5)"><path d="M65.86 104.64 C72.65 109.06, 79.45 113.48, 91 121 M65.86 104.64 C71.6 108.37, 77.34 112.11, 91 121" stroke="#000000" stroke-width="1" fill="none"></path></g><g transform="translate(1713.25 418.125) rotate(0 45.5 60.5)"><path d="M82.26 92.3 C84.62 100.06, 86.98 107.81, 91 121 M82.26 92.3 C84.25 98.86, 86.25 105.41, 91 121" stroke="#000000" stroke-width="1" fill="none"></path></g></g><mask></mask><g stroke-linecap="round"><g transform="translate(1590.25 412.08957126201494) rotate(0 -21 63.33709978192161)"><path d="M0 0 C-15.51 46.78, -31.02 93.56, -42 126.67 M0 0 C-12.57 37.93, -25.15 75.85, -42 126.67" stroke="#000000" stroke-width="1" fill="none"></path></g><g transform="translate(1590.25 412.08957126201494) rotate(0 -21 63.33709978192161)"><path d="M-42.87 96.69 C-42.55 107.76, -42.23 118.84, -42 126.67 M-42.87 96.69 C-42.61 105.66, -42.35 114.64, -42 126.67" stroke="#000000" stroke-width="1" fill="none"></path></g><g transform="translate(1590.25 412.08957126201494) rotate(0 -21 63.33709978192161)"><path d="M-23.39 103.15 C-30.26 111.83, -37.13 120.52, -42 126.67 M-23.39 103.15 C-28.96 110.19, -34.53 117.23, -42 126.67" stroke="#000000" stroke-width="1" fill="none"></path></g></g><mask></mask><g stroke-linecap="round" transform="translate(1489.5 547.375) rotate(0 61 66)"><path d="M0 0 C32.13 0, 64.26 0, 122 0 M0 0 C34.95 0, 69.9 0, 122 0 M122 0 C122 27.3, 122 54.61, 122 132 M122 0 C122 31.79, 122 63.57, 122 132 M122 132 C82.3 132, 42.6 132, 0 132 M122 132 C87.78 132, 53.57 132, 0 132 M0 132 C0 79.38, 0 26.75, 0 0 M0 132 C0 83.99, 0 35.98, 0 0" stroke="#000000" stroke-width="1" fill="none"></path></g><g stroke-linecap="round" transform="translate(1758.5 547.375) rotate(0 61 66)"><path d="M0 0 C41.86 0, 83.71 0, 122 0 M0 0 C40.16 0, 80.31 0, 122 0 M122 0 C122 32.5, 122 64.99, 122 132 M122 0 C122 38.26, 122 76.52, 122 132 M122 132 C94.69 132, 67.39 132, 0 132 M122 132 C74.04 132, 26.08 132, 0 132 M0 132 C0 100.25, 0 68.5, 0 0 M0 132 C0 87.06, 0 42.12, 0 0" stroke="#000000" stroke-width="1" fill="none"></path></g><g stroke-linecap="round"><g transform="translate(1070 117.75) rotate(0 258.5 78)"><path d="M0 0 C127.67 38.52, 255.34 77.05, 517 156 M0 0 C111.26 33.57, 222.52 67.14, 517 156" stroke="#000000" stroke-width="1" fill="none"></path></g><g transform="translate(1070 117.75) rotate(0 258.5 78)"><path d="M487.05 157.68 C494.44 157.26, 501.84 156.85, 517 156 M487.05 157.68 C493.49 157.32, 499.94 156.96, 517 156" stroke="#000000" stroke-width="1" fill="none"></path></g><g transform="translate(1070 117.75) rotate(0 258.5 78)"><path d="M492.98 138.03 C498.91 142.47, 504.84 146.91, 517 156 M492.98 138.03 C498.15 141.9, 503.32 145.77, 517 156" stroke="#000000" stroke-width="1" fill="none"></path></g></g><mask></mask><g stroke-linecap="round" transform="translate(238.25 322.125) rotate(0 61 66)"><path d="M0 0 C34.1 0, 68.2 0, 122 0 M0 0 C37.61 0, 75.22 0, 122 0 M122 0 C122 51.87, 122 103.75, 122 132 M122 0 C122 41.06, 122 82.13, 122 132 M122 132 C82.75 132, 43.5 132, 0 132 M122 132 C80.76 132, 39.52 132, 0 132 M0 132 C0 90.46, 0 48.92, 0 0 M0 132 C0 87.69, 0 43.37, 0 0" stroke="#000000" stroke-width="1" fill="none"></path></g><g stroke-linecap="round"><g transform="translate(360.25 454.125) rotate(0 45.5 60.5)"><path d="M0 0 C25.66 34.12, 51.32 68.24, 91 121 M0 0 C25.24 33.56, 50.48 67.12, 91 121" stroke="#000000" stroke-width="1" fill="none"></path></g><g transform="translate(360.25 454.125) rotate(0 45.5 60.5)"><path d="M65.86 104.64 C72.95 109.25, 80.04 113.87, 91 121 M65.86 104.64 C72.83 109.18, 79.8 113.71, 91 121" stroke="#000000" stroke-width="1" fill="none"></path></g><g transform="translate(360.25 454.125) rotate(0 45.5 60.5)"><path d="M82.26 92.3 C84.72 100.4, 87.19 108.49, 91 121 M82.26 92.3 C84.68 100.26, 87.11 108.22, 91 121" stroke="#000000" stroke-width="1" fill="none"></path></g></g><mask></mask><g stroke-linecap="round"><g transform="translate(291.2500000000001 457.08957126201494) rotate(0 -21.000000000000057 63.33709978192161)"><path d="M0 0 C-10.54 31.8, -21.08 63.59, -42 126.67 M0 0 C-13.12 39.57, -26.24 79.14, -42 126.67" stroke="#000000" stroke-width="1" fill="none"></path></g><g transform="translate(291.2500000000001 457.08957126201494) rotate(0 -21.000000000000057 63.33709978192161)"><path d="M-42.87 96.69 C-42.65 104.21, -42.43 111.74, -42 126.67 M-42.87 96.69 C-42.6 106.05, -42.33 115.42, -42 126.67" stroke="#000000" stroke-width="1" fill="none"></path></g><g transform="translate(291.2500000000001 457.08957126201494) rotate(0 -21.000000000000057 63.33709978192161)"><path d="M-23.39 103.15 C-28.06 109.05, -32.73 114.96, -42 126.67 M-23.39 103.15 C-29.2 110.49, -35.02 117.84, -42 126.67" stroke="#000000" stroke-width="1" fill="none"></path></g></g><mask></mask><g stroke-linecap="round" transform="translate(211.5 592.375) rotate(0 61 66)"><path d="M0 0 C29.33 0, 58.66 0, 122 0 M0 0 C39.89 0, 79.79 0, 122 0 M122 0 C122 50.87, 122 101.73, 122 132 M122 0 C122 46.57, 122 93.14, 122 132 M122 132 C89.07 132, 56.14 132, 0 132 M122 132 C79.85 132, 37.71 132, 0 132 M0 132 C0 85.25, 0 38.49, 0 0 M0 132 C0 89.12, 0 46.24, 0 0" stroke="#000000" stroke-width="1" fill="none"></path></g><g stroke-linecap="round" transform="translate(405.5 583.375) rotate(0 61 66)"><path d="M0 0 C40.34 0, 80.69 0, 122 0 M0 0 C34.57 0, 69.14 0, 122 0 M122 0 C122 49.06, 122 98.11, 122 132 M122 0 C122 39.28, 122 78.56, 122 132 M122 132 C88.36 132, 54.73 132, 0 132 M122 132 C83.57 132, 45.14 132, 0 132 M0 132 C0 101.42, 0 70.83, 0 0 M0 132 C0 98.34, 0 64.69, 0 0" stroke="#000000" stroke-width="1" fill="none"></path></g><g stroke-linecap="round"><g transform="translate(933 120.75) rotate(0 -279 101)"><path d="M0 0 C-133.24 48.23, -266.48 96.47, -558 202 M0 0 C-147.49 53.39, -294.98 106.78, -558 202" stroke="#000000" stroke-width="1" fill="none"></path></g><g transform="translate(933 120.75) rotate(0 -279 101)"><path d="M-534.99 182.76 C-540.48 187.35, -545.98 191.95, -558 202 M-534.99 182.76 C-541.07 187.84, -547.15 192.93, -558 202" stroke="#000000" stroke-width="1" fill="none"></path></g><g transform="translate(933 120.75) rotate(0 -279 101)"><path d="M-528 202.05 C-535.16 202.04, -542.33 202.03, -558 202 M-528 202.05 C-535.93 202.04, -543.86 202.02, -558 202" stroke="#000000" stroke-width="1" fill="none"></path></g></g><mask></mask><g stroke-linecap="round" transform="translate(10 592.75) rotate(0 61 66)"><path d="M0 0 C31.82 0, 63.64 0, 122 0 M0 0 C46.33 0, 92.65 0, 122 0 M122 0 C122 50.23, 122 100.45, 122 132 M122 0 C122 30.81, 122 61.62, 122 132 M122 132 C76.57 132, 31.13 132, 0 132 M122 132 C79.98 132, 37.96 132, 0 132 M0 132 C0 92.85, 0 53.69, 0 0 M0 132 C0 98.6, 0 65.2, 0 0" stroke="#000000" stroke-width="1" fill="none"></path></g><g stroke-linecap="round"><g transform="translate(232 431.8005958128331) rotate(0 -62.32043999330148 78.47470209358346)"><path d="M0 0 C-42.74 53.82, -85.49 107.65, -124.64 156.95 M0 0 C-47.27 59.53, -94.54 119.05, -124.64 156.95" stroke="#000000" stroke-width="1" fill="none"></path></g><g transform="translate(232 431.8005958128331) rotate(0 -62.32043999330148 78.47470209358346)"><path d="M-115.14 128.49 C-118.4 138.25, -121.66 148.01, -124.64 156.95 M-115.14 128.49 C-118.75 139.29, -122.35 150.08, -124.64 156.95" stroke="#000000" stroke-width="1" fill="none"></path></g><g transform="translate(232 431.8005958128331) rotate(0 -62.32043999330148 78.47470209358346)"><path d="M-99.07 141.25 C-107.84 146.64, -116.61 152.02, -124.64 156.95 M-99.07 141.25 C-108.77 147.21, -118.47 153.16, -124.64 156.95" stroke="#000000" stroke-width="1" fill="none"></path></g></g><mask></mask><g stroke-linecap="round" transform="translate(1623.9384765625 546) rotate(0 61 66)"><path d="M0 0 C34.54 0, 69.08 0, 122 0 M0 0 C41.97 0, 83.95 0, 122 0 M122 0 C122 33.12, 122 66.23, 122 132 M122 0 C122 40.59, 122 81.18, 122 132 M122 132 C74.12 132, 26.24 132, 0 132 M122 132 C80.94 132, 39.88 132, 0 132 M0 132 C0 79.64, 0 27.28, 0 0 M0 132 C0 83.04, 0 34.08, 0 0" stroke="#000000" stroke-width="1" fill="none"></path></g><g stroke-linecap="round" transform="translate(1914.9384765625 550) rotate(0 61 66)"><path d="M0 0 C27.65 0, 55.3 0, 122 0 M0 0 C34.45 0, 68.91 0, 122 0 M122 0 C122 47.08, 122 94.16, 122 132 M122 0 C122 39.35, 122 78.69, 122 132 M122 132 C92.08 132, 62.15 132, 0 132 M122 132 C82.53 132, 43.06 132, 0 132 M0 132 C0 90.97, 0 49.93, 0 0 M0 132 C0 80.02, 0 28.05, 0 0" stroke="#000000" stroke-width="1" fill="none"></path></g><g stroke-linecap="round"><g transform="translate(1660 418.75) rotate(0 3 56)"><path d="M0 0 C1.42 26.48, 2.84 52.96, 6 112 M0 0 C2.22 41.48, 4.44 82.97, 6 112" stroke="#000000" stroke-width="1" fill="none"></path></g><g transform="translate(1660 418.75) rotate(0 3 56)"><path d="M-5.75 84.4 C-2.98 90.92, -0.2 97.45, 6 112 M-5.75 84.4 C-1.4 94.62, 2.95 104.85, 6 112" stroke="#000000" stroke-width="1" fill="none"></path></g><g transform="translate(1660 418.75) rotate(0 3 56)"><path d="M14.74 83.3 C12.67 90.09, 10.61 96.87, 6 112 M14.74 83.3 C11.5 93.93, 8.27 104.56, 6 112" stroke="#000000" stroke-width="1" fill="none"></path></g></g><mask></mask><g stroke-linecap="round"><g transform="translate(1715 379.75) rotate(0 120.5 84)"><path d="M0 0 C71.25 49.67, 142.5 99.33, 241 168 M0 0 C65.08 45.37, 130.17 90.74, 241 168" stroke="#000000" stroke-width="1" fill="none"></path></g><g transform="translate(1715 379.75) rotate(0 120.5 84)"><path d="M212.01 160.3 C220.58 162.57, 229.15 164.85, 241 168 M212.01 160.3 C219.84 162.38, 227.67 164.46, 241 168" stroke="#000000" stroke-width="1" fill="none"></path></g><g transform="translate(1715 379.75) rotate(0 120.5 84)"><path d="M223.74 143.46 C228.84 150.72, 233.95 157.97, 241 168 M223.74 143.46 C228.4 150.09, 233.06 156.72, 241 168" stroke="#000000" stroke-width="1" fill="none"></path></g></g><mask></mask></svg>