<svg version="1.1" xmlns="http://www.w3.org/2000/svg" viewBox="0 0 947 754" width="947" height="754">
  <!-- svg-source:excalidraw -->
  
  <defs>
    <style class="style-fonts">
      @font-face {
        font-family: "Virgil";
        src: url("https://excalidraw.com/Virgil.woff2");
      }
      @font-face {
        font-family: "Cascadia";
        src: url("https://excalidraw.com/Cascadia.woff2");
      }
    </style>
  </defs>
  <rect x="0" y="0" width="947" height="754" fill="#ffffff"></rect><g stroke-linecap="round" transform="translate(431.25 38.25) rotate(0 61 66)"><path d="M0 0 C48.27 0, 96.53 0, 122 0 M0 0 C41.84 0, 83.69 0, 122 0 M122 0 C122 34.47, 122 68.95, 122 132 M122 0 C122 45.11, 122 90.22, 122 132 M122 132 C93.06 132, 64.12 132, 0 132 M122 132 C73.86 132, 25.72 132, 0 132 M0 132 C0 94.8, 0 57.6, 0 0 M0 132 C0 96.31, 0 60.62, 0 0" stroke="#000000" stroke-width="1" fill="none"></path></g><g transform="translate(476.13671875 92.75) rotate(0 16.11328125 11.5)"><text x="16.11328125" y="0" font-family="Helvetica, Segoe UI Emoji" font-size="20px" fill="#000000" text-anchor="middle" style="white-space: pre;" direction="ltr" dominant-baseline="text-before-edge">raiz</text></g><g mask="url(#mask-EG1D-feBesNW-JRXhU5vN)" stroke-linecap="round"><g transform="translate(553.25 170.25) rotate(0 45.5 60.5)"><path d="M0 0 C26.77 35.59, 53.53 71.18, 91 121 M0 0 C24.29 32.3, 48.58 64.6, 91 121" stroke="#000000" stroke-width="1" fill="none"></path></g><g transform="translate(553.25 170.25) rotate(0 45.5 60.5)"><path d="M65.86 104.64 C73.25 109.45, 80.65 114.26, 91 121 M65.86 104.64 C72.57 109, 79.28 113.37, 91 121" stroke="#000000" stroke-width="1" fill="none"></path></g><g transform="translate(553.25 170.25) rotate(0 45.5 60.5)"><path d="M82.26 92.3 C84.83 100.74, 87.4 109.18, 91 121 M82.26 92.3 C84.59 99.96, 86.92 107.62, 91 121" stroke="#000000" stroke-width="1" fill="none"></path></g></g><mask id="mask-EG1D-feBesNW-JRXhU5vN"><rect x="0" y="0" fill="#fff" width="744.25" height="391.25"></rect><rect x="584.296875" y="219.25" fill="#000" width="28.90625" height="23" opacity="1"></rect></mask><g transform="translate(584.296875 219.25) rotate(0 14.453125 11.5)"><text x="14.453125" y="0" font-family="Helvetica, Segoe UI Emoji" font-size="20px" fill="#000000" text-anchor="middle" style="white-space: pre;" direction="ltr" dominant-baseline="text-before-edge">der</text></g><g mask="url(#mask-HUua44WO9Ss3OrbwVNlmg)" stroke-linecap="round"><g transform="translate(430.25 172.25) rotate(0 -46.5 59.5)"><path d="M0 0 C-21.72 27.79, -43.43 55.58, -93 119 M0 0 C-24.59 31.47, -49.19 62.94, -93 119" stroke="#000000" stroke-width="1" fill="none"></path></g><g transform="translate(430.25 172.25) rotate(0 -46.5 59.5)"><path d="M-83.73 90.47 C-85.89 97.13, -88.06 103.79, -93 119 M-83.73 90.47 C-86.18 98.01, -88.63 105.56, -93 119" stroke="#000000" stroke-width="1" fill="none"></path></g><g transform="translate(430.25 172.25) rotate(0 -46.5 59.5)"><path d="M-67.56 103.11 C-73.5 106.82, -79.44 110.53, -93 119 M-67.56 103.11 C-74.29 107.31, -81.01 111.51, -93 119" stroke="#000000" stroke-width="1" fill="none"></path></g></g><mask id="mask-HUua44WO9Ss3OrbwVNlmg"><rect x="0" y="0" fill="#fff" width="623.25" height="391.25"></rect><rect x="370.966796875" y="220.25" fill="#000" width="25.56640625" height="23" opacity="1"></rect></mask><g transform="translate(370.966796875 220.25) rotate(0 12.783203125 11.5)"><text x="12.783203125" y="0" font-family="Helvetica, Segoe UI Emoji" font-size="20px" fill="#000000" text-anchor="middle" style="white-space: pre;" direction="ltr" dominant-baseline="text-before-edge">izq</text></g><g stroke-linecap="round" transform="translate(227.75 303.75) rotate(0 61 66)"><path d="M0 0 C31.51 0, 63.03 0, 122 0 M0 0 C25.45 0, 50.91 0, 122 0 M122 0 C122 51.76, 122 103.52, 122 132 M122 0 C122 28.49, 122 56.99, 122 132 M122 132 C87.23 132, 52.46 132, 0 132 M122 132 C90.5 132, 59.01 132, 0 132 M0 132 C0 81.7, 0 31.39, 0 0 M0 132 C0 92.04, 0 52.09, 0 0" stroke="#000000" stroke-width="1" fill="none"></path></g><g mask="url(#mask-NQXoq8SCGEps7QxfE6tLJ)" stroke-linecap="round"><g transform="translate(337.9103154192684 436.75) rotate(0 36.788707180260644 64)"><path d="M0 0 C17.63 30.66, 35.25 61.32, 73.58 128 M0 0 C16.26 28.29, 32.52 56.57, 73.58 128" stroke="#000000" stroke-width="1" fill="none"></path></g><g transform="translate(337.9103154192684 436.75) rotate(0 36.788707180260644 64)"><path d="M50.63 108.67 C56.13 113.3, 61.63 117.93, 73.58 128 M50.63 108.67 C55.7 112.94, 60.77 117.21, 73.58 128" stroke="#000000" stroke-width="1" fill="none"></path></g><g transform="translate(337.9103154192684 436.75) rotate(0 36.788707180260644 64)"><path d="M68.42 98.45 C69.66 105.53, 70.89 112.61, 73.58 128 M68.42 98.45 C69.56 104.98, 70.7 111.51, 73.58 128" stroke="#000000" stroke-width="1" fill="none"></path></g></g><mask id="mask-NQXoq8SCGEps7QxfE6tLJ"><rect x="0" y="0" fill="#fff" width="511.4877297797897" height="664.75"></rect><rect x="360.24589759952903" y="489.25" fill="#000" width="28.90625" height="23" opacity="1"></rect></mask><g transform="translate(360.24589759952903 489.25) rotate(0 14.453125 11.5)"><text x="14.453125" y="0" font-family="Helvetica, Segoe UI Emoji" font-size="20px" fill="#000000" text-anchor="middle" style="white-space: pre;" direction="ltr" dominant-baseline="text-before-edge">der</text></g><g mask="url(#mask-hJeqY-Hjj4fgEhA3RVYrg)" stroke-linecap="round"><g transform="translate(226.75 437.75) rotate(0 -46.5 59.5)"><path d="M0 0 C-34.87 44.61, -69.73 89.22, -93 119 M0 0 C-34.54 44.2, -69.09 88.4, -93 119" stroke="#000000" stroke-width="1" fill="none"></path></g><g transform="translate(226.75 437.75) rotate(0 -46.5 59.5)"><path d="M-83.73 90.47 C-87.2 101.17, -90.68 111.86, -93 119 M-83.73 90.47 C-87.17 101.07, -90.62 111.66, -93 119" stroke="#000000" stroke-width="1" fill="none"></path></g><g transform="translate(226.75 437.75) rotate(0 -46.5 59.5)"><path d="M-67.56 103.11 C-77.09 109.06, -86.63 115.02, -93 119 M-67.56 103.11 C-77.01 109.01, -86.46 114.91, -93 119" stroke="#000000" stroke-width="1" fill="none"></path></g></g><mask id="mask-hJeqY-Hjj4fgEhA3RVYrg"><rect x="0" y="0" fill="#fff" width="419.75" height="656.75"></rect><rect x="167.466796875" y="485.75" fill="#000" width="25.56640625" height="23" opacity="1"></rect></mask><g transform="translate(167.466796875 485.75) rotate(0 12.783203125 11.5)"><text x="12.783203125" y="0" font-family="Helvetica, Segoe UI Emoji" font-size="20px" fill="#000000" text-anchor="middle" style="white-space: pre;" direction="ltr" dominant-baseline="text-before-edge">izq</text></g><g stroke-linecap="round" transform="translate(616.75 307.75) rotate(0 61 66)"><path d="M0 0 C35.2 0, 70.4 0, 122 0 M0 0 C46.16 0, 92.33 0, 122 0 M122 0 C122 28.12, 122 56.24, 122 132 M122 0 C122 48.82, 122 97.65, 122 132 M122 132 C83.65 132, 45.31 132, 0 132 M122 132 C94.29 132, 66.59 132, 0 132 M0 132 C0 81.16, 0 30.32, 0 0 M0 132 C0 98.62, 0 65.23, 0 0" stroke="#000000" stroke-width="1" fill="none"></path></g><g mask="url(#mask-jxoGnc0nVzda3XctVD54B)" stroke-linecap="round"><g transform="translate(738.75 439.75) rotate(0 45.5 60.5)"><path d="M0 0 C30.14 40.08, 60.28 80.15, 91 121 M0 0 C28.09 37.35, 56.17 74.69, 91 121" stroke="#000000" stroke-width="1" fill="none"></path></g><g transform="translate(738.75 439.75) rotate(0 45.5 60.5)"><path d="M65.86 104.64 C74.18 110.06, 82.51 115.48, 91 121 M65.86 104.64 C73.62 109.69, 81.38 114.74, 91 121" stroke="#000000" stroke-width="1" fill="none"></path></g><g transform="translate(738.75 439.75) rotate(0 45.5 60.5)"><path d="M82.26 92.3 C85.15 101.81, 88.05 111.31, 91 121 M82.26 92.3 C84.95 101.16, 87.65 110.02, 91 121" stroke="#000000" stroke-width="1" fill="none"></path></g></g><mask id="mask-jxoGnc0nVzda3XctVD54B"><rect x="0" y="0" fill="#fff" width="929.75" height="660.75"></rect><rect x="769.796875" y="488.75" fill="#000" width="28.90625" height="23" opacity="1"></rect></mask><g transform="translate(769.796875 488.75) rotate(0 14.453125 11.5)"><text x="14.453125" y="0" font-family="Helvetica, Segoe UI Emoji" font-size="20px" fill="#000000" text-anchor="middle" style="white-space: pre;" direction="ltr" dominant-baseline="text-before-edge">der</text></g><g mask="url(#mask-d8zTfuEfA6J7qPMJagJxZ)" stroke-linecap="round"><g transform="translate(614.7500000000001 434.71457126201494) rotate(0 -21.000000000000057 63.33709978192161)"><path d="M0 0 C-11.77 35.5, -23.54 71, -42 126.67 M0 0 C-11.65 35.15, -23.31 70.3, -42 126.67" stroke="#000000" stroke-width="1" fill="none"></path></g><g transform="translate(614.7500000000001 434.71457126201494) rotate(0 -21.000000000000057 63.33709978192161)"><path d="M-42.87 96.69 C-42.62 105.09, -42.38 113.5, -42 126.67 M-42.87 96.69 C-42.63 105.01, -42.39 113.33, -42 126.67" stroke="#000000" stroke-width="1" fill="none"></path></g><g transform="translate(614.7500000000001 434.71457126201494) rotate(0 -21.000000000000057 63.33709978192161)"><path d="M-23.39 103.15 C-28.6 109.74, -33.82 116.33, -42 126.67 M-23.39 103.15 C-28.55 109.67, -33.72 116.2, -42 126.67" stroke="#000000" stroke-width="1" fill="none"></path></g></g><mask id="mask-d8zTfuEfA6J7qPMJagJxZ"><rect x="0" y="0" fill="#fff" width="756.7500000000002" height="661.3887708258582"></rect><rect x="580.9667968749999" y="486.5516710439365" fill="#000" width="25.56640625" height="23" opacity="1"></rect></mask><g transform="translate(580.966796875 486.5516710439365) rotate(0 12.783203125000057 11.5)"><text x="12.783203125" y="0" font-family="Helvetica, Segoe UI Emoji" font-size="20px" fill="#000000" text-anchor="middle" style="white-space: pre;" direction="ltr" dominant-baseline="text-before-edge">izq</text></g><g stroke-linecap="round" transform="translate(36 569) rotate(0 61 66)"><path d="M0 0 C25.21 0, 50.42 0, 122 0 M0 0 C33.72 0, 67.43 0, 122 0 M122 0 C122 33.74, 122 67.48, 122 132 M122 0 C122 50.85, 122 101.69, 122 132 M122 132 C85.44 132, 48.89 132, 0 132 M122 132 C84.77 132, 47.53 132, 0 132 M0 132 C0 101.31, 0 70.62, 0 0 M0 132 C0 104.24, 0 76.48, 0 0" stroke="#000000" stroke-width="1" fill="none"></path></g><g stroke-linecap="round" transform="translate(337 575) rotate(0 61 66)"><path d="M0 0 C31.07 0, 62.13 0, 122 0 M0 0 C46.11 0, 92.22 0, 122 0 M122 0 C122 51.54, 122 103.07, 122 132 M122 0 C122 35.82, 122 71.65, 122 132 M122 132 C87.34 132, 52.67 132, 0 132 M122 132 C91.52 132, 61.04 132, 0 132 M0 132 C0 99.47, 0 66.93, 0 0 M0 132 C0 84.39, 0 36.79, 0 0" stroke="#000000" stroke-width="1" fill="none"></path></g><g stroke-linecap="round" transform="translate(514 569) rotate(0 61 66)"><path d="M0 0 C32.91 0, 65.82 0, 122 0 M0 0 C42.98 0, 85.96 0, 122 0 M122 0 C122 32.62, 122 65.24, 122 132 M122 0 C122 37.47, 122 74.95, 122 132 M122 132 C90.84 132, 59.67 132, 0 132 M122 132 C90.46 132, 58.92 132, 0 132 M0 132 C0 84.02, 0 36.04, 0 0 M0 132 C0 92.4, 0 52.79, 0 0" stroke="#000000" stroke-width="1" fill="none"></path></g><g stroke-linecap="round" transform="translate(783 569) rotate(0 61 66)"><path d="M0 0 C30.19 0, 60.38 0, 122 0 M0 0 C30.78 0, 61.55 0, 122 0 M122 0 C122 26.56, 122 53.12, 122 132 M122 0 C122 27.73, 122 55.47, 122 132 M122 132 C78.44 132, 34.88 132, 0 132 M122 132 C87.56 132, 53.13 132, 0 132 M0 132 C0 94.59, 0 57.18, 0 0 M0 132 C0 95.81, 0 59.62, 0 0" stroke="#000000" stroke-width="1" fill="none"></path></g><g stroke-linecap="round" transform="translate(10 10) rotate(0 463.5 367)"><path d="M0 0 C369 0, 738.01 0, 927 0 M0 0 C358.77 0, 717.54 0, 927 0 M927 0 C927 201.3, 927 402.6, 927 734 M927 0 C927 291.48, 927 582.95, 927 734 M927 734 C615.97 734, 304.95 734, 0 734 M927 734 C713.25 734, 499.5 734, 0 734 M0 734 C0 534.65, 0 335.29, 0 0 M0 734 C0 570.28, 0 406.56, 0 0" stroke="#000000" stroke-width="1" fill="none"></path></g></svg>