<svg version="1.1" xmlns="http://www.w3.org/2000/svg" viewBox="0 0 1903 856.5" width="1903" height="856.5">
  <!-- svg-source:excalidraw -->
  
  <defs>
    <style class="style-fonts">
      @font-face {
        font-family: "Virgil";
        src: url("https://excalidraw.com/Virgil.woff2");
      }
      @font-face {
        font-family: "Cascadia";
        src: url("https://excalidraw.com/Cascadia.woff2");
      }
    </style>
  </defs>
  <rect x="0" y="0" width="1903" height="856.5" fill="#ffffff"></rect><g stroke-linecap="round" transform="translate(889.5 10) rotate(0 61 66)"><path d="M0 0 C33.09 0, 66.18 0, 122 0 M0 0 C24.63 0, 49.26 0, 122 0 M122 0 C122 41, 122 82, 122 132 M122 0 C122 52.8, 122 105.59, 122 132 M122 132 C88.11 132, 54.22 132, 0 132 M122 132 C95.73 132, 69.47 132, 0 132 M0 132 C0 101.66, 0 71.32, 0 0 M0 132 C0 83.74, 0 35.47, 0 0" stroke="#000000" stroke-width="1" fill="none"></path></g><g transform="translate(939.376953125 64.5) rotate(0 11.123046875 11.5)"><text x="11.123046875" y="0" font-family="Helvetica, Segoe UI Emoji" font-size="20px" fill="#000000" text-anchor="middle" style="white-space: pre;" direction="ltr" dominant-baseline="text-before-edge">50</text></g><g stroke-linecap="round"><g transform="translate(888.5000000000001 105.99965675520167) rotate(0 -144.09285834621312 60.00017162239919)"><path d="M0 0 C-48.03 20, -240.15 100, -288.19 120 M0 0 C-48.03 20, -240.15 100, -288.19 120" stroke="#000000" stroke-width="1" fill="none"></path></g><g transform="translate(888.5000000000001 105.99965675520167) rotate(0 -144.09285834621312 60.00017162239919)"><path d="M-266.11 99.69 C-270.85 104.05, -275.59 108.42, -288.19 120 M-266.11 99.69 C-271.87 105, -277.64 110.3, -288.19 120" stroke="#000000" stroke-width="1" fill="none"></path></g><g transform="translate(888.5000000000001 105.99965675520167) rotate(0 -144.09285834621312 60.00017162239919)"><path d="M-258.22 118.64 C-264.65 118.93, -271.09 119.22, -288.19 120 M-258.22 118.64 C-266.05 118.99, -273.88 119.35, -288.19 120" stroke="#000000" stroke-width="1" fill="none"></path></g></g><mask></mask><g stroke-linecap="round"><g transform="translate(1012.5 99.48923327267181) rotate(0 148.62836426321587 73.7553833636641)"><path d="M0 0 C49.54 24.59, 247.71 122.93, 297.26 147.51 M0 0 C49.54 24.59, 247.71 122.93, 297.26 147.51" stroke="#000000" stroke-width="1" fill="none"></path></g><g transform="translate(1012.5 99.48923327267181) rotate(0 148.62836426321587 73.7553833636641)"><path d="M267.44 144.17 C273.83 144.89, 280.21 145.6, 297.26 147.51 M267.44 144.17 C274.56 144.97, 281.67 145.76, 297.26 147.51" stroke="#000000" stroke-width="1" fill="none"></path></g><g transform="translate(1012.5 99.48923327267181) rotate(0 148.62836426321587 73.7553833636641)"><path d="M276.57 125.79 C281 130.44, 285.43 135.09, 297.26 147.51 M276.57 125.79 C281.5 130.97, 286.44 136.15, 297.26 147.51" stroke="#000000" stroke-width="1" fill="none"></path></g></g><mask></mask><g stroke-linecap="round" transform="translate(484.5 232) rotate(0 61 66)"><path d="M0 0 C46.11 0, 92.22 0, 122 0 M0 0 C48.66 0, 97.32 0, 122 0 M122 0 C122 37.9, 122 75.81, 122 132 M122 0 C122 39.95, 122 79.9, 122 132 M122 132 C89.47 132, 56.93 132, 0 132 M122 132 C94.43 132, 66.85 132, 0 132 M0 132 C0 97.95, 0 63.9, 0 0 M0 132 C0 92.78, 0 53.57, 0 0" stroke="#000000" stroke-width="1" fill="none"></path></g><g transform="translate(534.376953125 286.5) rotate(0 11.123046875 11.5)"><text x="11.123046875" y="0" font-family="Helvetica, Segoe UI Emoji" font-size="20px" fill="#000000" text-anchor="middle" style="white-space: pre;" direction="ltr" dominant-baseline="text-before-edge">30</text></g><g stroke-linecap="round" transform="translate(1305.5 253) rotate(0 61 66)"><path d="M0 0 C37.63 0, 75.25 0, 122 0 M0 0 C37.85 0, 75.71 0, 122 0 M122 0 C122 49.06, 122 98.11, 122 132 M122 0 C122 42.46, 122 84.92, 122 132 M122 132 C90.46 132, 58.92 132, 0 132 M122 132 C80.4 132, 38.8 132, 0 132 M0 132 C0 93.26, 0 54.52, 0 0 M0 132 C0 83.39, 0 34.78, 0 0" stroke="#000000" stroke-width="1" fill="none"></path></g><g transform="translate(1355.376953125 307.5) rotate(0 11.123046875 11.5)"><text x="11.123046875" y="0" font-family="Helvetica, Segoe UI Emoji" font-size="20px" fill="#000000" text-anchor="middle" style="white-space: pre;" direction="ltr" dominant-baseline="text-before-edge">70</text></g><g stroke-linecap="round" transform="translate(187 441.5) rotate(0 61 66)"><path d="M0 0 C45.87 0, 91.74 0, 122 0 M0 0 C34.85 0, 69.71 0, 122 0 M122 0 C122 50.95, 122 101.9, 122 132 M122 0 C122 52.15, 122 104.31, 122 132 M122 132 C88.24 132, 54.48 132, 0 132 M122 132 C91.18 132, 60.35 132, 0 132 M0 132 C0 86.22, 0 40.44, 0 0 M0 132 C0 99.46, 0 66.91, 0 0" stroke="#000000" stroke-width="1" fill="none"></path></g><g transform="translate(236.876953125 496) rotate(0 11.123046875 11.5)"><text x="11.123046875" y="0" font-family="Helvetica, Segoe UI Emoji" font-size="20px" fill="#000000" text-anchor="middle" style="white-space: pre;" direction="ltr" dominant-baseline="text-before-edge">20</text></g><g stroke-linecap="round"><g transform="translate(187 573.5) rotate(0 -56 55.5)"><path d="M0 0 C-18.67 18.5, -93.33 92.5, -112 111 M0 0 C-18.67 18.5, -93.33 92.5, -112 111" stroke="#000000" stroke-width="1" fill="none"></path></g><g transform="translate(187 573.5) rotate(0 -56 55.5)"><path d="M-99.2 83.87 C-103.64 93.28, -108.08 102.69, -112 111 M-99.2 83.87 C-103.81 93.64, -108.42 103.42, -112 111" stroke="#000000" stroke-width="1" fill="none"></path></g><g transform="translate(187 573.5) rotate(0 -56 55.5)"><path d="M-84.75 98.44 C-94.21 102.8, -103.66 107.16, -112 111 M-84.75 98.44 C-94.57 102.97, -104.39 107.49, -112 111" stroke="#000000" stroke-width="1" fill="none"></path></g></g><mask></mask><g stroke-linecap="round"><g transform="translate(308 573.5) rotate(0 46.5 59.5)"><path d="M0 0 C15.5 19.83, 77.5 99.17, 93 119 M0 0 C15.5 19.83, 77.5 99.17, 93 119" stroke="#000000" stroke-width="1" fill="none"></path></g><g transform="translate(308 573.5) rotate(0 46.5 59.5)"><path d="M67.56 103.11 C73.37 106.73, 79.17 110.36, 93 119 M67.56 103.11 C75.1 107.82, 82.64 112.53, 93 119" stroke="#000000" stroke-width="1" fill="none"></path></g><g transform="translate(308 573.5) rotate(0 46.5 59.5)"><path d="M83.73 90.47 C85.84 96.98, 87.96 103.5, 93 119 M83.73 90.47 C86.47 98.93, 89.22 107.38, 93 119" stroke="#000000" stroke-width="1" fill="none"></path></g></g><mask></mask><g stroke-linecap="round" transform="translate(10 690.5) rotate(0 61 66)"><path d="M0 0 C44.52 0, 89.05 0, 122 0 M0 0 C38.21 0, 76.43 0, 122 0 M122 0 C122 44.29, 122 88.57, 122 132 M122 0 C122 43.71, 122 87.41, 122 132 M122 132 C74.84 132, 27.68 132, 0 132 M122 132 C87.75 132, 53.5 132, 0 132 M0 132 C0 97.24, 0 62.49, 0 0 M0 132 C0 90.46, 0 48.92, 0 0" stroke="#000000" stroke-width="1" fill="none"></path></g><g transform="translate(59.876953125 745) rotate(0 11.123046875 11.5)"><text x="11.123046875" y="0" font-family="Helvetica, Segoe UI Emoji" font-size="20px" fill="#000000" text-anchor="middle" style="white-space: pre;" direction="ltr" dominant-baseline="text-before-edge">10</text></g><g stroke-linecap="round" transform="translate(345 698.5) rotate(0 61 66)"><path d="M0 0 C39.53 0, 79.07 0, 122 0 M0 0 C31.26 0, 62.52 0, 122 0 M122 0 C122 30.37, 122 60.74, 122 132 M122 0 C122 40.18, 122 80.36, 122 132 M122 132 C80.41 132, 38.81 132, 0 132 M122 132 C96.43 132, 70.85 132, 0 132 M0 132 C0 102.49, 0 72.97, 0 0 M0 132 C0 95.96, 0 59.92, 0 0" stroke="#000000" stroke-width="1" fill="none"></path></g><g transform="translate(394.876953125 753) rotate(0 11.123046875 11.5)"><text x="11.123046875" y="0" font-family="Helvetica, Segoe UI Emoji" font-size="20px" fill="#000000" text-anchor="middle" style="white-space: pre;" direction="ltr" dominant-baseline="text-before-edge">25</text></g><g stroke-linecap="round" transform="translate(1613 452.5) rotate(0 61 66)"><path d="M0 0 C29.22 0, 58.43 0, 122 0 M0 0 C42.33 0, 84.67 0, 122 0 M122 0 C122 42.93, 122 85.87, 122 132 M122 0 C122 45.61, 122 91.21, 122 132 M122 132 C86.53 132, 51.06 132, 0 132 M122 132 C92.24 132, 62.47 132, 0 132 M0 132 C0 104.25, 0 76.49, 0 0 M0 132 C0 103.91, 0 75.82, 0 0" stroke="#000000" stroke-width="1" fill="none"></path></g><g transform="translate(1662.876953125 507) rotate(0 11.123046875 11.5)"><text x="11.123046875" y="0" font-family="Helvetica, Segoe UI Emoji" font-size="20px" fill="#000000" text-anchor="middle" style="white-space: pre;" direction="ltr" dominant-baseline="text-before-edge">80</text></g><g stroke-linecap="round"><g transform="translate(1613 584.5) rotate(0 -56 55.5)"><path d="M0 0 C-18.67 18.5, -93.33 92.5, -112 111 M0 0 C-18.67 18.5, -93.33 92.5, -112 111" stroke="#000000" stroke-width="1" fill="none"></path></g><g transform="translate(1613 584.5) rotate(0 -56 55.5)"><path d="M-99.2 83.87 C-101.96 89.73, -104.73 95.58, -112 111 M-99.2 83.87 C-102.15 90.13, -105.11 96.39, -112 111" stroke="#000000" stroke-width="1" fill="none"></path></g><g transform="translate(1613 584.5) rotate(0 -56 55.5)"><path d="M-84.75 98.44 C-90.64 101.15, -96.52 103.86, -112 111 M-84.75 98.44 C-91.04 101.34, -97.33 104.24, -112 111" stroke="#000000" stroke-width="1" fill="none"></path></g></g><mask></mask><g stroke-linecap="round"><g transform="translate(1734 584.5) rotate(0 46.5 59.5)"><path d="M0 0 C15.5 19.83, 77.5 99.17, 93 119 M0 0 C15.5 19.83, 77.5 99.17, 93 119" stroke="#000000" stroke-width="1" fill="none"></path></g><g transform="translate(1734 584.5) rotate(0 46.5 59.5)"><path d="M67.56 103.11 C75.08 107.81, 82.6 112.51, 93 119 M67.56 103.11 C74 107.13, 80.44 111.15, 93 119" stroke="#000000" stroke-width="1" fill="none"></path></g><g transform="translate(1734 584.5) rotate(0 46.5 59.5)"><path d="M83.73 90.47 C86.47 98.91, 89.21 107.34, 93 119 M83.73 90.47 C86.07 97.69, 88.42 104.91, 93 119" stroke="#000000" stroke-width="1" fill="none"></path></g></g><mask></mask><g stroke-linecap="round" transform="translate(1464 709.5) rotate(0 61 66)"><path d="M0 0 C31.08 0, 62.16 0, 122 0 M0 0 C32.11 0, 64.21 0, 122 0 M122 0 C122 38.22, 122 76.43, 122 132 M122 0 C122 40.44, 122 80.89, 122 132 M122 132 C88.39 132, 54.78 132, 0 132 M122 132 C81.52 132, 41.05 132, 0 132 M0 132 C0 83.43, 0 34.86, 0 0 M0 132 C0 93.77, 0 55.54, 0 0" stroke="#000000" stroke-width="1" fill="none"></path></g><g transform="translate(1513.876953125 764) rotate(0 11.123046875 11.5)"><text x="11.123046875" y="0" font-family="Helvetica, Segoe UI Emoji" font-size="20px" fill="#000000" text-anchor="middle" style="white-space: pre;" direction="ltr" dominant-baseline="text-before-edge">75</text></g><g stroke-linecap="round" transform="translate(1771 709.5) rotate(0 61 66)"><path d="M0 0 C36.66 0, 73.33 0, 122 0 M0 0 C45.99 0, 91.97 0, 122 0 M122 0 C122 29.15, 122 58.31, 122 132 M122 0 C122 50.49, 122 100.98, 122 132 M122 132 C84.25 132, 46.5 132, 0 132 M122 132 C94.39 132, 66.78 132, 0 132 M0 132 C0 102.78, 0 73.56, 0 0 M0 132 C0 95.16, 0 58.32, 0 0" stroke="#000000" stroke-width="1" fill="none"></path></g><g transform="translate(1820.876953125 764) rotate(0 11.123046875 11.5)"><text x="11.123046875" y="0" font-family="Helvetica, Segoe UI Emoji" font-size="20px" fill="#000000" text-anchor="middle" style="white-space: pre;" direction="ltr" dominant-baseline="text-before-edge">90</text></g><g stroke-linecap="round" transform="translate(692 452.5) rotate(0 61 66)"><path d="M0 0 C46.56 0, 93.12 0, 122 0 M0 0 C30.37 0, 60.74 0, 122 0 M122 0 C122 38.7, 122 77.4, 122 132 M122 0 C122 27.21, 122 54.42, 122 132 M122 132 C76.71 132, 31.41 132, 0 132 M122 132 C78.65 132, 35.29 132, 0 132 M0 132 C0 94.69, 0 57.39, 0 0 M0 132 C0 93.22, 0 54.45, 0 0" stroke="#000000" stroke-width="1" fill="none"></path></g><g transform="translate(741.876953125 507) rotate(0 11.123046875 11.5)"><text x="11.123046875" y="0" font-family="Helvetica, Segoe UI Emoji" font-size="20px" fill="#000000" text-anchor="middle" style="white-space: pre;" direction="ltr" dominant-baseline="text-before-edge">32</text></g><g stroke-linecap="round"><g transform="translate(692 584.5) rotate(0 -56 55.5)"><path d="M0 0 C-18.67 18.5, -93.33 92.5, -112 111 M0 0 C-18.67 18.5, -93.33 92.5, -112 111" stroke="#000000" stroke-width="1" fill="none"></path></g><g transform="translate(692 584.5) rotate(0 -56 55.5)"><path d="M-99.2 83.87 C-102.23 90.3, -105.27 96.73, -112 111 M-99.2 83.87 C-102.27 90.38, -105.35 96.9, -112 111" stroke="#000000" stroke-width="1" fill="none"></path></g><g transform="translate(692 584.5) rotate(0 -56 55.5)"><path d="M-84.75 98.44 C-91.21 101.42, -97.67 104.39, -112 111 M-84.75 98.44 C-91.3 101.46, -97.84 104.47, -112 111" stroke="#000000" stroke-width="1" fill="none"></path></g></g><mask></mask><g stroke-linecap="round"><g transform="translate(813 584.5) rotate(0 46.5 59.5)"><path d="M0 0 C15.5 19.83, 77.5 99.17, 93 119 M0 0 C15.5 19.83, 77.5 99.17, 93 119" stroke="#000000" stroke-width="1" fill="none"></path></g><g transform="translate(813 584.5) rotate(0 46.5 59.5)"><path d="M67.56 103.11 C76.72 108.83, 85.88 114.55, 93 119 M67.56 103.11 C75.44 108.03, 83.32 112.95, 93 119" stroke="#000000" stroke-width="1" fill="none"></path></g><g transform="translate(813 584.5) rotate(0 46.5 59.5)"><path d="M83.73 90.47 C87.07 100.74, 90.41 111.02, 93 119 M83.73 90.47 C86.6 99.3, 89.47 108.14, 93 119" stroke="#000000" stroke-width="1" fill="none"></path></g></g><mask></mask><g stroke-linecap="round" transform="translate(515 701.5) rotate(0 61 66)"><path d="M0 0 C41.53 0, 83.06 0, 122 0 M0 0 C33.58 0, 67.16 0, 122 0 M122 0 C122 33.52, 122 67.03, 122 132 M122 0 C122 27.72, 122 55.44, 122 132 M122 132 C90.07 132, 58.14 132, 0 132 M122 132 C90.56 132, 59.13 132, 0 132 M0 132 C0 98.02, 0 64.04, 0 0 M0 132 C0 92.05, 0 52.1, 0 0" stroke="#000000" stroke-width="1" fill="none"></path></g><g transform="translate(564.876953125 756) rotate(0 11.123046875 11.5)"><text x="11.123046875" y="0" font-family="Helvetica, Segoe UI Emoji" font-size="20px" fill="#000000" text-anchor="middle" style="white-space: pre;" direction="ltr" dominant-baseline="text-before-edge">31</text></g><g stroke-linecap="round" transform="translate(850 709.5) rotate(0 61 66)"><path d="M0 0 C43.38 0, 86.76 0, 122 0 M0 0 C29.6 0, 59.2 0, 122 0 M122 0 C122 40.98, 122 81.97, 122 132 M122 0 C122 39.66, 122 79.32, 122 132 M122 132 C90.52 132, 59.03 132, 0 132 M122 132 C91.43 132, 60.87 132, 0 132 M0 132 C0 88.71, 0 45.42, 0 0 M0 132 C0 86.34, 0 40.68, 0 0" stroke="#000000" stroke-width="1" fill="none"></path></g><g transform="translate(899.876953125 764) rotate(0 11.123046875 11.5)"><text x="11.123046875" y="0" font-family="Helvetica, Segoe UI Emoji" font-size="20px" fill="#000000" text-anchor="middle" style="white-space: pre;" direction="ltr" dominant-baseline="text-before-edge">35</text></g><g stroke-linecap="round" transform="translate(1161 457.5) rotate(0 61 66)"><path d="M0 0 C35.53 0, 71.07 0, 122 0 M0 0 C46.75 0, 93.5 0, 122 0 M122 0 C122 37.23, 122 74.46, 122 132 M122 0 C122 36.1, 122 72.21, 122 132 M122 132 C82.51 132, 43.01 132, 0 132 M122 132 C87.33 132, 52.66 132, 0 132 M0 132 C0 82.21, 0 32.41, 0 0 M0 132 C0 103.41, 0 74.83, 0 0" stroke="#000000" stroke-width="1" fill="none"></path></g><g transform="translate(1210.876953125 512) rotate(0 11.123046875 11.5)"><text x="11.123046875" y="0" font-family="Helvetica, Segoe UI Emoji" font-size="20px" fill="#000000" text-anchor="middle" style="white-space: pre;" direction="ltr" dominant-baseline="text-before-edge">60</text></g><g stroke-linecap="round"><g transform="translate(1161 589.5) rotate(0 -56 55.5)"><path d="M0 0 C-18.67 18.5, -93.33 92.5, -112 111 M0 0 C-18.67 18.5, -93.33 92.5, -112 111" stroke="#000000" stroke-width="1" fill="none"></path></g><g transform="translate(1161 589.5) rotate(0 -56 55.5)"><path d="M-99.2 83.87 C-102.02 89.85, -104.84 95.83, -112 111 M-99.2 83.87 C-103.46 92.89, -107.71 101.91, -112 111" stroke="#000000" stroke-width="1" fill="none"></path></g><g transform="translate(1161 589.5) rotate(0 -56 55.5)"><path d="M-84.75 98.44 C-90.76 101.21, -96.76 103.98, -112 111 M-84.75 98.44 C-93.81 102.62, -102.87 106.79, -112 111" stroke="#000000" stroke-width="1" fill="none"></path></g></g><mask></mask><g stroke-linecap="round"><g transform="translate(1282 589.5) rotate(0 46.5 59.5)"><path d="M0 0 C15.5 19.83, 77.5 99.17, 93 119 M0 0 C15.5 19.83, 77.5 99.17, 93 119" stroke="#000000" stroke-width="1" fill="none"></path></g><g transform="translate(1282 589.5) rotate(0 46.5 59.5)"><path d="M67.56 103.11 C74.45 107.41, 81.34 111.72, 93 119 M67.56 103.11 C76.66 108.8, 85.77 114.48, 93 119" stroke="#000000" stroke-width="1" fill="none"></path></g><g transform="translate(1282 589.5) rotate(0 46.5 59.5)"><path d="M83.73 90.47 C86.24 98.2, 88.75 105.92, 93 119 M83.73 90.47 C87.05 100.68, 90.36 110.89, 93 119" stroke="#000000" stroke-width="1" fill="none"></path></g></g><mask></mask><g stroke-linecap="round" transform="translate(984 706.5) rotate(0 61 66)"><path d="M0 0 C29.14 0, 58.27 0, 122 0 M0 0 C40.03 0, 80.06 0, 122 0 M122 0 C122 38.49, 122 76.99, 122 132 M122 0 C122 43.08, 122 86.15, 122 132 M122 132 C86.24 132, 50.49 132, 0 132 M122 132 C81.53 132, 41.06 132, 0 132 M0 132 C0 94.49, 0 56.99, 0 0 M0 132 C0 88.47, 0 44.95, 0 0" stroke="#000000" stroke-width="1" fill="none"></path></g><g transform="translate(1033.876953125 761) rotate(0 11.123046875 11.5)"><text x="11.123046875" y="0" font-family="Helvetica, Segoe UI Emoji" font-size="20px" fill="#000000" text-anchor="middle" style="white-space: pre;" direction="ltr" dominant-baseline="text-before-edge">55</text></g><g stroke-linecap="round" transform="translate(1319 714.5) rotate(0 61 66)"><path d="M0 0 C35.04 0, 70.07 0, 122 0 M0 0 C45.33 0, 90.67 0, 122 0 M122 0 C122 44.8, 122 89.59, 122 132 M122 0 C122 31.27, 122 62.55, 122 132 M122 132 C89.29 132, 56.57 132, 0 132 M122 132 C97.05 132, 72.11 132, 0 132 M0 132 C0 100.99, 0 69.98, 0 0 M0 132 C0 80, 0 27.99, 0 0" stroke="#000000" stroke-width="1" fill="none"></path></g><g transform="translate(1368.876953125 769) rotate(0 11.123046875 11.5)"><text x="11.123046875" y="0" font-family="Helvetica, Segoe UI Emoji" font-size="20px" fill="#000000" text-anchor="middle" style="white-space: pre;" direction="ltr" dominant-baseline="text-before-edge">65</text></g><g stroke-linecap="round"><g transform="translate(1445.5 395) rotate(0 78.5 28.5)"><path d="M0 0 C26.17 9.5, 130.83 47.5, 157 57 M0 0 C26.17 9.5, 130.83 47.5, 157 57" stroke="#000000" stroke-width="1" fill="none"></path></g><g transform="translate(1445.5 395) rotate(0 78.5 28.5)"><path d="M127 57.02 C134.44 57.02, 141.89 57.01, 157 57 M127 57.02 C134.22 57.02, 141.45 57.01, 157 57" stroke="#000000" stroke-width="1" fill="none"></path></g><g transform="translate(1445.5 395) rotate(0 78.5 28.5)"><path d="M134 37.73 C139.71 42.51, 145.41 47.29, 157 57 M134 37.73 C139.54 42.37, 145.08 47.01, 157 57" stroke="#000000" stroke-width="1" fill="none"></path></g></g><mask></mask><g stroke-linecap="round"><g transform="translate(1314.5 398) rotate(0 -7 21)"><path d="M0 0 C-2.33 7, -11.67 35, -14 42 M0 0 C-2.33 7, -11.67 35, -14 42" stroke="#000000" stroke-width="1" fill="none"></path></g><g transform="translate(1314.5 398) rotate(0 -7 21)"><path d="M-14.6 19.87 C-14.38 27.92, -14.16 35.97, -14 42 M-14.6 19.87 C-14.42 26.72, -14.23 33.57, -14 42" stroke="#000000" stroke-width="1" fill="none"></path></g><g transform="translate(1314.5 398) rotate(0 -7 21)"><path d="M-0.24 24.66 C-5.25 30.97, -10.25 37.28, -14 42 M-0.24 24.66 C-4.5 30.03, -8.76 35.39, -14 42" stroke="#000000" stroke-width="1" fill="none"></path></g></g><mask></mask><g stroke-linecap="round"><g transform="translate(612.5 373) rotate(0 37 35.5)"><path d="M0 0 C12.33 11.83, 61.67 59.17, 74 71 M0 0 C12.33 11.83, 61.67 59.17, 74 71" stroke="#000000" stroke-width="1" fill="none"></path></g><g transform="translate(612.5 373) rotate(0 37 35.5)"><path d="M46.55 58.89 C55.62 62.89, 64.68 66.89, 74 71 M46.55 58.89 C55.54 62.85, 64.53 66.82, 74 71" stroke="#000000" stroke-width="1" fill="none"></path></g><g transform="translate(612.5 373) rotate(0 37 35.5)"><path d="M60.76 44.08 C65.13 52.97, 69.5 61.86, 74 71 M60.76 44.08 C65.1 52.89, 69.43 61.71, 74 71" stroke="#000000" stroke-width="1" fill="none"></path></g></g><mask></mask><g stroke-linecap="round"><g transform="translate(482.5 359) rotate(0 -83.5 43.5)"><path d="M0 0 C-27.83 14.5, -139.17 72.5, -167 87 M0 0 C-27.83 14.5, -139.17 72.5, -167 87" stroke="#000000" stroke-width="1" fill="none"></path></g><g transform="translate(482.5 359) rotate(0 -83.5 43.5)"><path d="M-146.74 64.88 C-151.59 70.17, -156.44 75.47, -167 87 M-146.74 64.88 C-153.63 72.4, -160.51 79.92, -167 87" stroke="#000000" stroke-width="1" fill="none"></path></g><g transform="translate(482.5 359) rotate(0 -83.5 43.5)"><path d="M-137.26 83.08 C-144.38 84.02, -151.5 84.95, -167 87 M-137.26 83.08 C-147.37 84.41, -157.48 85.74, -167 87" stroke="#000000" stroke-width="1" fill="none"></path></g></g><mask></mask></svg>