<svg version="1.1" xmlns="http://www.w3.org/2000/svg" viewBox="0 0 510 426" width="510" height="426">
  <!-- svg-source:excalidraw -->
  
  <defs>
    <style class="style-fonts">
      @font-face {
        font-family: "Virgil";
        src: url("https://excalidraw.com/Virgil.woff2");
      }
      @font-face {
        font-family: "Cascadia";
        src: url("https://excalidraw.com/Cascadia.woff2");
      }
    </style>
  </defs>
  <rect x="0" y="0" width="510" height="426" fill="#ffffff"></rect><g stroke-linecap="round" transform="translate(197 107) rotate(0 61 66)"><path d="M0 0 C37.21 0, 74.42 0, 122 0 M0 0 C39.97 0, 79.94 0, 122 0 M122 0 C122 50.61, 122 101.21, 122 132 M122 0 C122 26.44, 122 52.88, 122 132 M122 132 C77.27 132, 32.55 132, 0 132 M122 132 C75.67 132, 29.35 132, 0 132 M0 132 C0 87.24, 0 42.48, 0 0 M0 132 C0 97.49, 0 62.98, 0 0" stroke="#000000" stroke-width="1" fill="none"></path></g><g transform="translate(216.8623046875 161.5) rotate(0 41.1376953125 11.5)"><text x="41.1376953125" y="0" font-family="Helvetica, Segoe UI Emoji" font-size="20px" fill="#000000" text-anchor="middle" style="white-space: pre;" direction="ltr" dominant-baseline="text-before-edge">elemento</text></g><g mask="url(#mask-1XPOEhIc2gAxMouecU1Cw)" stroke-linecap="round"><g transform="translate(319 239) rotate(0 45.5 60.5)"><path d="M0 0 C25.76 34.26, 51.53 68.51, 91 121 M0 0 C21.71 28.86, 43.42 57.73, 91 121" stroke="#000000" stroke-width="1" fill="none"></path></g><g transform="translate(319 239) rotate(0 45.5 60.5)"><path d="M65.86 104.64 C72.97 109.27, 80.09 113.9, 91 121 M65.86 104.64 C71.85 108.54, 77.85 112.44, 91 121" stroke="#000000" stroke-width="1" fill="none"></path></g><g transform="translate(319 239) rotate(0 45.5 60.5)"><path d="M82.26 92.3 C84.73 100.43, 87.21 108.55, 91 121 M82.26 92.3 C84.34 99.15, 86.43 105.99, 91 121" stroke="#000000" stroke-width="1" fill="none"></path></g></g><mask id="mask-1XPOEhIc2gAxMouecU1Cw"><rect x="0" y="0" fill="#fff" width="510" height="460"></rect><rect x="350.046875" y="288" fill="#000" width="28.90625" height="23" opacity="1"></rect></mask><g transform="translate(350.046875 288) rotate(0 14.453125 11.5)"><text x="14.453125" y="0" font-family="Helvetica, Segoe UI Emoji" font-size="20px" fill="#000000" text-anchor="middle" style="white-space: pre;" direction="ltr" dominant-baseline="text-before-edge">der</text></g><g mask="url(#mask-zjGXxHzOyk4fCEZW7_898)" stroke-linecap="round"><g transform="translate(196 241) rotate(0 -46.5 59.5)"><path d="M0 0 C-22.04 28.21, -44.09 56.41, -93 119 M0 0 C-25.32 32.4, -50.63 64.79, -93 119" stroke="#000000" stroke-width="1" fill="none"></path></g><g transform="translate(196 241) rotate(0 -46.5 59.5)"><path d="M-83.73 90.47 C-85.92 97.23, -88.12 103.99, -93 119 M-83.73 90.47 C-86.25 98.24, -88.78 106, -93 119" stroke="#000000" stroke-width="1" fill="none"></path></g><g transform="translate(196 241) rotate(0 -46.5 59.5)"><path d="M-67.56 103.11 C-73.59 106.87, -79.62 110.64, -93 119 M-67.56 103.11 C-74.48 107.43, -81.41 111.76, -93 119" stroke="#000000" stroke-width="1" fill="none"></path></g></g><mask id="mask-zjGXxHzOyk4fCEZW7_898"><rect x="0" y="0" fill="#fff" width="389" height="460"></rect><rect x="136.716796875" y="289" fill="#000" width="25.56640625" height="23" opacity="1"></rect></mask><g transform="translate(136.716796875 289) rotate(0 12.783203125 11.5)"><text x="12.783203125" y="0" font-family="Helvetica, Segoe UI Emoji" font-size="20px" fill="#000000" text-anchor="middle" style="white-space: pre;" direction="ltr" dominant-baseline="text-before-edge">izq</text></g><g transform="translate(53 39) rotate(0 52.83203125 11.5)"><text x="0" y="0" font-family="Helvetica, Segoe UI Emoji" font-size="20px" fill="#000000" text-anchor="start" style="white-space: pre;" direction="ltr" dominant-baseline="text-before-edge">nodo_abb_t</text></g><g stroke-linecap="round" transform="translate(10 10) rotate(0 245 203)"><path d="M0 0 C146.86 0, 293.72 0, 490 0 M0 0 C134.73 0, 269.47 0, 490 0 M490 0 C490 142.52, 490 285.04, 490 406 M490 0 C490 159.62, 490 319.23, 490 406 M490 406 C322.83 406, 155.66 406, 0 406 M490 406 C345.22 406, 200.43 406, 0 406 M0 406 C0 253.5, 0 101, 0 0 M0 406 C0 256.24, 0 106.49, 0 0" stroke="#000000" stroke-width="1" fill="none"></path></g></svg>