<svg version="1.1" xmlns="http://www.w3.org/2000/svg" viewBox="0 0 394.56640625 359" width="394.56640625" height="359">
  <!-- svg-source:excalidraw -->
  
  <defs>
    <style class="style-fonts">
      @font-face {
        font-family: "Virgil";
        src: url("https://excalidraw.com/Virgil.woff2");
      }
      @font-face {
        font-family: "Cascadia";
        src: url("https://excalidraw.com/Cascadia.woff2");
      }
    </style>
  </defs>
  <rect x="0" y="0" width="394.56640625" height="359" fill="#ffffff"></rect><g stroke-linecap="round" transform="translate(167 92) rotate(0 61 66)"><path d="M0 0 C24.96 0, 49.92 0, 122 0 M0 0 C27.79 0, 55.58 0, 122 0 M122 0 C122 37.56, 122 75.12, 122 132 M122 0 C122 39.33, 122 78.66, 122 132 M122 132 C74.84 132, 27.68 132, 0 132 M122 132 C74.48 132, 26.95 132, 0 132 M0 132 C0 92.95, 0 53.91, 0 0 M0 132 C0 100.03, 0 68.06, 0 0" stroke="#000000" stroke-width="1" fill="none"></path></g><g transform="translate(186.8623046875 146.5) rotate(0 41.1376953125 11.5)"><text x="41.1376953125" y="0" font-family="Helvetica, Segoe UI Emoji" font-size="20px" fill="#000000" text-anchor="middle" style="white-space: pre;" direction="ltr" dominant-baseline="text-before-edge">elemento</text></g><g transform="translate(10 10) rotate(0 52.83203125 11.5)"><text x="0" y="0" font-family="Helvetica, Segoe UI Emoji" font-size="20px" fill="#000000" text-anchor="start" style="white-space: pre;" direction="ltr" dominant-baseline="text-before-edge">nodo_abb_t</text></g><g mask="url(#mask-EK-OgxNICdOs2_tETNi8_)" stroke-linecap="round"><g transform="translate(167 223) rotate(0 -41.5 46.5)"><path d="M0 0 C-13.83 15.5, -69.17 77.5, -83 93 M0 0 C-13.83 15.5, -69.17 77.5, -83 93" stroke="#000000" stroke-width="1" fill="none"></path></g><g transform="translate(167 223) rotate(0 -41.5 46.5)"><path d="M-71.88 65.14 C-75.02 73, -78.16 80.87, -83 93 M-71.88 65.14 C-76.31 76.22, -80.73 87.3, -83 93" stroke="#000000" stroke-width="1" fill="none"></path></g><g transform="translate(167 223) rotate(0 -41.5 46.5)"><path d="M-56.57 78.8 C-64.04 82.81, -71.5 86.82, -83 93 M-56.57 78.8 C-67.08 84.45, -77.59 90.09, -83 93" stroke="#000000" stroke-width="1" fill="none"></path></g></g><mask id="mask-EK-OgxNICdOs2_tETNi8_"><rect x="0" y="0" fill="#fff" width="350" height="416"></rect><rect x="112.716796875" y="258" fill="#000" width="25.56640625" height="23" opacity="1"></rect></mask><g transform="translate(112.716796875 258) rotate(0 12.783203125 11.5)"><text x="12.783203125" y="0" font-family="Helvetica, Segoe UI Emoji" font-size="20px" fill="#000000" text-anchor="middle" style="white-space: pre;" direction="ltr" dominant-baseline="text-before-edge">izq</text></g><g mask="url(#mask-ayqo0hgj1hBmm35X6iLB0)" stroke-linecap="round"><g transform="translate(289 224) rotate(0 35 45)"><path d="M0 0 C11.67 15, 58.33 75, 70 90 M0 0 C11.67 15, 58.33 75, 70 90" stroke="#000000" stroke-width="1" fill="none"></path></g><g transform="translate(289 224) rotate(0 35 45)"><path d="M44.59 74.05 C54.7 80.39, 64.8 86.74, 70 90 M44.59 74.05 C50.35 77.66, 56.11 81.28, 70 90" stroke="#000000" stroke-width="1" fill="none"></path></g><g transform="translate(289 224) rotate(0 35 45)"><path d="M60.79 61.45 C64.45 72.8, 68.12 84.16, 70 90 M60.79 61.45 C62.88 67.92, 64.97 74.39, 70 90" stroke="#000000" stroke-width="1" fill="none"></path></g></g><mask id="mask-ayqo0hgj1hBmm35X6iLB0"><rect x="0" y="0" fill="#fff" width="459" height="414"></rect><rect x="309.546875" y="257.5" fill="#000" width="28.90625" height="23" opacity="1"></rect></mask><g transform="translate(309.546875 257.5) rotate(0 14.453125 11.5)"><text x="14.453125" y="0" font-family="Helvetica, Segoe UI Emoji" font-size="20px" fill="#000000" text-anchor="middle" style="white-space: pre;" direction="ltr" dominant-baseline="text-before-edge">der</text></g><g transform="translate(58 326) rotate(0 25.56640625 11.5)"><text x="0" y="0" font-family="Helvetica, Segoe UI Emoji" font-size="20px" fill="#000000" text-anchor="start" style="white-space: pre;" direction="ltr" dominant-baseline="text-before-edge">NULL</text></g><g transform="translate(333.43359375 323.5) rotate(0 25.56640625 11.5)"><text x="0" y="0" font-family="Helvetica, Segoe UI Emoji" font-size="20px" fill="#000000" text-anchor="start" style="white-space: pre;" direction="ltr" dominant-baseline="text-before-edge">NULL</text></g></svg>